<svg width="64" height="64" viewBox="0 0 64 64" fill="none" xmlns="http://www.w3.org/2000/svg">
  <!-- Magic trail -->
  <circle cx="16" cy="44" r="3" fill="#7DA2A9" fill-opacity="0.6" />
  <circle cx="10" cy="42" r="2" fill="#7DA2A9" fill-opacity="0.4" />
  <circle cx="6" cy="46" r="1.5" fill="#7DA2A9" fill-opacity="0.3" />
  
  <!-- Staff -->
  <rect x="10" y="38" width="44" height="4" rx="2" fill="#8B4513" />
  <circle cx="54" cy="40" r="5" fill="#C5A059" />
  <circle cx="54" cy="40" r="2.5" fill="#EF4444" />
  
  <!-- Body/Cloak -->
  <path d="M24 38 L32 20 L40 38 Z" fill="#F2F4F7" />
  <path d="M22 40 L42 40 L44 46 L20 46 Z" fill="#F2F4F7" />
  <path d="M30 24 L34 24 L34 38 L30 38 Z" fill="#3B3B58" />
  <path d="M24 38 L40 38 L40 40 L24 40 Z" fill="#C5A059" />
  
  <!-- Head -->
  <circle cx="32" cy="16" r="6" fill="#FFE0BD" />
  
  <!-- Hair (Silver/White) -->
  <path d="M24 16 C 24 8, 40 8, 40 16 L 38 20 L 26 20 Z" fill="#E2E8F0" />
  <!-- Twintails -->
  <path d="M25 18 L18 34 L22 34 L27 20 Z" fill="#E2E8F0" />
  <path d="M39 18 L46 34 L42 34 L37 20 Z" fill="#E2E8F0" />
  
  <!-- Eyes (Greenish/Blue) -->
  <circle cx="30" cy="15" r="1" fill="#7DA2A9" />
  <circle cx="34" cy="15" r="1" fill="#7DA2A9" />
</svg>