<svg xmlns="http://www.w3.org/2000/svg"
     width="64" height="64" viewBox="0 0 64 64"
     shape-rendering="crispEdges" image-rendering="pixelated">
  <rect x="32" y="1" width="8" height="1" fill="#334233" opacity="0.07"/>
  <rect x="31" y="2" width="1" height="1" fill="#4e5d49" opacity="0.14"/>
  <rect x="32" y="2" width="1" height="1" fill="#010005"/>
  <rect x="33" y="2" width="1" height="1" fill="#0e0010"/>
  <rect x="34" y="2" width="6" height="1" fill="#050008"/>
  <rect x="40" y="2" width="1" height="1" fill="#000000"/>
  <rect x="28" y="3" width="1" height="1" fill="#001100" opacity="0.26"/>
  <rect x="29" y="3" width="1" height="1" fill="#0c1a09" opacity="0.39"/>
  <rect x="30" y="3" width="1" height="1" fill="#231c2c"/>
  <rect x="31" y="3" width="1" height="1" fill="#472b4a"/>
  <rect x="32" y="3" width="1" height="1" fill="#5f3565"/>
  <rect x="33" y="3" width="7" height="1" fill="#632e6d"/>
  <rect x="40" y="3" width="1" height="1" fill="#572c5f"/>
  <rect x="41" y="3" width="1" height="1" fill="#422947"/>
  <rect x="42" y="3" width="1" height="1" fill="#2a2c31"/>
  <rect x="43" y="3" width="2" height="1" fill="#010d00" opacity="0.65"/>
  <rect x="28" y="4" width="1" height="1" fill="#121313"/>
  <rect x="29" y="4" width="1" height="1" fill="#2a1430"/>
  <rect x="30" y="4" width="1" height="1" fill="#492453"/>
  <rect x="31" y="4" width="2" height="1" fill="#5d2963"/>
  <rect x="33" y="4" width="10" height="1" fill="#613069"/>
  <rect x="43" y="4" width="1" height="1" fill="#25172a"/>
  <rect x="44" y="4" width="1" height="1" fill="#0c0e0d"/>
  <rect x="26" y="5" width="1" height="1" fill="#000700"/>
  <rect x="27" y="5" width="1" height="1" fill="#271d2f"/>
  <rect x="28" y="5" width="1" height="1" fill="#523063"/>
  <rect x="29" y="5" width="1" height="1" fill="#642b60"/>
  <rect x="30" y="5" width="6" height="1" fill="#602c6d"/>
  <rect x="36" y="5" width="1" height="1" fill="#40104c"/>
  <rect x="37" y="5" width="5" height="1" fill="#62306d"/>
  <rect x="42" y="5" width="1" height="1" fill="#5d2b67"/>
  <rect x="43" y="5" width="1" height="1" fill="#61336c"/>
  <rect x="44" y="5" width="1" height="1" fill="#5a2f64"/>
  <rect x="45" y="5" width="1" height="1" fill="#1b1f1e"/>
  <rect x="46" y="5" width="1" height="1" fill="#000f00" opacity="0.44"/>
  <rect x="26" y="6" width="1" height="1" fill="#000200"/>
  <rect x="27" y="6" width="1" height="1" fill="#4e2756"/>
  <rect x="28" y="6" width="1" height="1" fill="#572960"/>
  <rect x="29" y="6" width="4" height="1" fill="#622e67"/>
  <rect x="33" y="6" width="2" height="1" fill="#5d2666"/>
  <rect x="35" y="6" width="1" height="1" fill="#3b1549"/>
  <rect x="36" y="6" width="1" height="1" fill="#582663"/>
  <rect x="37" y="6" width="8" height="1" fill="#5c2e6b"/>
  <rect x="45" y="6" width="1" height="1" fill="#3e2f4b"/>
  <rect x="46" y="6" width="1" height="1" fill="#000d00" opacity="0.62"/>
  <rect x="25" y="7" width="1" height="1" fill="#12200c" opacity="0.27"/>
  <rect x="26" y="7" width="1" height="1" fill="#202228"/>
  <rect x="27" y="7" width="2" height="1" fill="#63336c"/>
  <rect x="29" y="7" width="2" height="1" fill="#602a66"/>
  <rect x="31" y="7" width="5" height="1" fill="#461f57"/>
  <rect x="36" y="7" width="1" height="1" fill="#622a69"/>
  <rect x="37" y="7" width="1" height="1" fill="#834a8a"/>
  <rect x="38" y="7" width="1" height="1" fill="#542761"/>
  <rect x="39" y="7" width="5" height="1" fill="#612f6c"/>
  <rect x="44" y="7" width="1" height="1" fill="#55225c"/>
  <rect x="45" y="7" width="1" height="1" fill="#663e6b"/>
  <rect x="46" y="7" width="1" height="1" fill="#16211e"/>
  <rect x="25" y="8" width="1" height="1" fill="#020202"/>
  <rect x="26" y="8" width="1" height="1" fill="#56395f"/>
  <rect x="27" y="8" width="1" height="1" fill="#622e67"/>
  <rect x="28" y="8" width="1" height="1" fill="#370d45"/>
  <rect x="29" y="8" width="1" height="1" fill="#3a134a"/>
  <rect x="30" y="8" width="1" height="1" fill="#330c43"/>
  <rect x="31" y="8" width="2" height="1" fill="#59326b"/>
  <rect x="33" y="8" width="1" height="1" fill="#552d62"/>
  <rect x="34" y="8" width="1" height="1" fill="#2e0d3c"/>
  <rect x="35" y="8" width="1" height="1" fill="#5a2962"/>
  <rect x="36" y="8" width="1" height="1" fill="#955899"/>
  <rect x="37" y="8" width="1" height="1" fill="#a160a0"/>
  <rect x="38" y="8" width="1" height="1" fill="#341246"/>
  <rect x="39" y="8" width="1" height="1" fill="#612f6c"/>
  <rect x="40" y="8" width="1" height="1" fill="#3b124c"/>
  <rect x="41" y="8" width="1" height="1" fill="#99599b"/>
  <rect x="42" y="8" width="1" height="1" fill="#65336f"/>
  <rect x="43" y="8" width="1" height="1" fill="#3c144c"/>
  <rect x="44" y="8" width="1" height="1" fill="#6d3774"/>
  <rect x="45" y="8" width="1" height="1" fill="#9b5a99"/>
  <rect x="46" y="8" width="1" height="1" fill="#846385"/>
  <rect x="47" y="8" width="1" height="1" fill="#000400"/>
  <rect x="24" y="9" width="1" height="1" fill="#000f00" opacity="0.39"/>
  <rect x="25" y="9" width="1" height="1" fill="#111623"/>
  <rect x="26" y="9" width="1" height="1" fill="#3f1847"/>
  <rect x="27" y="9" width="1" height="1" fill="#38134c"/>
  <rect x="28" y="9" width="3" height="1" fill="#542b65"/>
  <rect x="31" y="9" width="2" height="1" fill="#622e6e"/>
  <rect x="33" y="9" width="1" height="1" fill="#552961"/>
  <rect x="34" y="9" width="1" height="1" fill="#2e0e3e"/>
  <rect x="35" y="9" width="1" height="1" fill="#5a2962"/>
  <rect x="36" y="9" width="1" height="1" fill="#955597"/>
  <rect x="37" y="9" width="1" height="1" fill="#4b1b54"/>
  <rect x="38" y="9" width="1" height="1" fill="#3b1246"/>
  <rect x="39" y="9" width="1" height="1" fill="#905897"/>
  <rect x="40" y="9" width="1" height="1" fill="#37114a"/>
  <rect x="41" y="9" width="1" height="1" fill="#a65fa3"/>
  <rect x="42" y="9" width="1" height="1" fill="#613372"/>
  <rect x="43" y="9" width="1" height="1" fill="#330e48"/>
  <rect x="44" y="9" width="1" height="1" fill="#6c3773"/>
  <rect x="45" y="9" width="1" height="1" fill="#460f4a"/>
  <rect x="46" y="9" width="1" height="1" fill="#826080"/>
  <rect x="47" y="9" width="1" height="1" fill="#000300"/>
  <rect x="24" y="10" width="1" height="1" fill="#000600"/>
  <rect x="25" y="10" width="1" height="1" fill="#2e173d"/>
  <rect x="26" y="10" width="2" height="1" fill="#5e366b"/>
  <rect x="28" y="10" width="5" height="1" fill="#5d2c69"/>
  <rect x="33" y="10" width="1" height="1" fill="#2f0a3d"/>
  <rect x="34" y="10" width="2" height="1" fill="#5b3067"/>
  <rect x="36" y="10" width="1" height="1" fill="#58275f"/>
  <rect x="37" y="10" width="1" height="1" fill="#2c0a3d"/>
  <rect x="38" y="10" width="2" height="1" fill="#5d2a65"/>
  <rect x="40" y="10" width="1" height="1" fill="#390f49"/>
  <rect x="41" y="10" width="1" height="1" fill="#5f2d6b"/>
  <rect x="42" y="10" width="1" height="1" fill="#633677"/>
  <rect x="43" y="10" width="1" height="1" fill="#330f44"/>
  <rect x="44" y="10" width="1" height="1" fill="#6a3977"/>
  <rect x="45" y="10" width="1" height="1" fill="#360d40"/>
  <rect x="46" y="10" width="1" height="1" fill="#4b2f4e"/>
  <rect x="47" y="10" width="1" height="1" fill="#000300"/>
  <rect x="24" y="11" width="1" height="1" fill="#000600"/>
  <rect x="25" y="11" width="1" height="1" fill="#2c163c"/>
  <rect x="26" y="11" width="5" height="1" fill="#341144"/>
  <rect x="31" y="11" width="3" height="1" fill="#2e093e"/>
  <rect x="34" y="11" width="3" height="1" fill="#5d2e6a"/>
  <rect x="37" y="11" width="1" height="1" fill="#341046"/>
  <rect x="38" y="11" width="2" height="1" fill="#652e70"/>
  <rect x="40" y="11" width="1" height="1" fill="#35104b"/>
  <rect x="41" y="11" width="1" height="1" fill="#602b69"/>
  <rect x="42" y="11" width="1" height="1" fill="#5f346d"/>
  <rect x="43" y="11" width="1" height="1" fill="#330a3f"/>
  <rect x="44" y="11" width="1" height="1" fill="#663d76"/>
  <rect x="45" y="11" width="1" height="1" fill="#3c164e"/>
  <rect x="46" y="11" width="1" height="1" fill="#513254"/>
  <rect x="47" y="11" width="1" height="1" fill="#000300"/>
  <rect x="24" y="12" width="1" height="1" fill="#000600"/>
  <rect x="25" y="12" width="1" height="1" fill="#2d163c"/>
  <rect x="26" y="12" width="6" height="1" fill="#562e63"/>
  <rect x="32" y="12" width="1" height="1" fill="#311244"/>
  <rect x="33" y="12" width="1" height="1" fill="#280c3c"/>
  <rect x="34" y="12" width="3" height="1" fill="#5c2c67"/>
  <rect x="37" y="12" width="1" height="1" fill="#321046"/>
  <rect x="38" y="12" width="2" height="1" fill="#63306c"/>
  <rect x="40" y="12" width="2" height="1" fill="#2e0e45"/>
  <rect x="42" y="12" width="1" height="1" fill="#1f022a"/>
  <rect x="43" y="12" width="1" height="1" fill="#cca1ab"/>
  <rect x="44" y="12" width="2" height="1" fill="#391649"/>
  <rect x="46" y="12" width="1" height="1" fill="#503651"/>
  <rect x="47" y="12" width="1" height="1" fill="#000300"/>
  <rect x="24" y="13" width="1" height="1" fill="#000500"/>
  <rect x="25" y="13" width="1" height="1" fill="#2c163c"/>
  <rect x="26" y="13" width="3" height="1" fill="#2e0f41"/>
  <rect x="29" y="13" width="2" height="1" fill="#5a2d67"/>
  <rect x="31" y="13" width="2" height="1" fill="#64316d"/>
  <rect x="33" y="13" width="1" height="1" fill="#2d0b3d"/>
  <rect x="34" y="13" width="3" height="1" fill="#5e2d66"/>
  <rect x="37" y="13" width="1" height="1" fill="#311045"/>
  <rect x="38" y="13" width="1" height="1" fill="#360b40"/>
  <rect x="39" y="13" width="1" height="1" fill="#290425"/>
  <rect x="40" y="13" width="1" height="1" fill="#dcb0a5"/>
  <rect x="41" y="13" width="2" height="1" fill="#e0b09c"/>
  <rect x="43" y="13" width="1" height="1" fill="#e5ad8d"/>
  <rect x="44" y="13" width="1" height="1" fill="#c4ada7"/>
  <rect x="45" y="13" width="2" height="1" fill="#07000e"/>
  <rect x="47" y="13" width="1" height="1" fill="#000300"/>
  <rect x="24" y="14" width="1" height="1" fill="#000500"/>
  <rect x="25" y="14" width="1" height="1" fill="#54375c"/>
  <rect x="26" y="14" width="2" height="1" fill="#2e0d42"/>
  <rect x="28" y="14" width="3" height="1" fill="#311346"/>
  <rect x="31" y="14" width="2" height="1" fill="#05000f"/>
  <rect x="33" y="14" width="1" height="1" fill="#260f3a"/>
  <rect x="34" y="14" width="3" height="1" fill="#602b69"/>
  <rect x="37" y="14" width="1" height="1" fill="#310d3b"/>
  <rect x="38" y="14" width="1" height="1" fill="#e1b4af"/>
  <rect x="39" y="14" width="1" height="1" fill="#d5b5ad"/>
  <rect x="40" y="14" width="3" height="1" fill="#100000"/>
  <rect x="43" y="14" width="1" height="1" fill="#e5a882"/>
  <rect x="44" y="14" width="1" height="1" fill="#f5dcbe"/>
  <rect x="45" y="14" width="1" height="1" fill="#0a1209" opacity="0.91"/>
  <rect x="24" y="15" width="1" height="1" fill="#000600"/>
  <rect x="25" y="15" width="1" height="1" fill="#5c3661"/>
  <rect x="26" y="15" width="2" height="1" fill="#602e6b"/>
  <rect x="28" y="15" width="2" height="1" fill="#321145"/>
  <rect x="30" y="15" width="1" height="1" fill="#07000c"/>
  <rect x="31" y="15" width="1" height="1" fill="#f7dec0"/>
  <rect x="32" y="15" width="1" height="1" fill="#f5d5be"/>
  <rect x="33" y="15" width="1" height="1" fill="#301237"/>
  <rect x="34" y="15" width="3" height="1" fill="#5f2d6b"/>
  <rect x="37" y="15" width="1" height="1" fill="#370f30"/>
  <rect x="38" y="15" width="1" height="1" fill="#e9bea4"/>
  <rect x="39" y="15" width="1" height="1" fill="#0f0018"/>
  <rect x="40" y="15" width="1" height="1" fill="#ac9bcc"/>
  <rect x="41" y="15" width="1" height="1" fill="#040016"/>
  <rect x="42" y="15" width="1" height="1" fill="#d7cdd3"/>
  <rect x="43" y="15" width="1" height="1" fill="#facd9e"/>
  <rect x="44" y="15" width="1" height="1" fill="#f4e2c2"/>
  <rect x="45" y="15" width="1" height="1" fill="#000d00" opacity="0.58"/>
  <rect x="23" y="16" width="1" height="1" fill="#000600"/>
  <rect x="24" y="16" width="1" height="1" fill="#443d4c"/>
  <rect x="25" y="16" width="3" height="1" fill="#623266"/>
  <rect x="28" y="16" width="2" height="1" fill="#330e42"/>
  <rect x="30" y="16" width="1" height="1" fill="#000102"/>
  <rect x="31" y="16" width="1" height="1" fill="#f6d6ae"/>
  <rect x="32" y="16" width="1" height="1" fill="#dcbb92"/>
  <rect x="33" y="16" width="1" height="1" fill="#32113c"/>
  <rect x="34" y="16" width="3" height="1" fill="#622d6a"/>
  <rect x="37" y="16" width="1" height="1" fill="#2c0a2d"/>
  <rect x="38" y="16" width="1" height="1" fill="#ffd9c7"/>
  <rect x="39" y="16" width="1" height="1" fill="#9a7283"/>
  <rect x="40" y="16" width="1" height="1" fill="#fffaff"/>
  <rect x="41" y="16" width="1" height="1" fill="#2e0842"/>
  <rect x="42" y="16" width="1" height="1" fill="#380f3a"/>
  <rect x="43" y="16" width="1" height="1" fill="#ffdbb4"/>
  <rect x="44" y="16" width="1" height="1" fill="#efdcbc"/>
  <rect x="45" y="16" width="1" height="1" fill="#000d00" opacity="0.62"/>
  <rect x="23" y="17" width="1" height="1" fill="#000400"/>
  <rect x="24" y="17" width="1" height="1" fill="#593761"/>
  <rect x="25" y="17" width="3" height="1" fill="#622f67"/>
  <rect x="28" y="17" width="1" height="1" fill="#300f42"/>
  <rect x="29" y="17" width="1" height="1" fill="#371641"/>
  <rect x="30" y="17" width="1" height="1" fill="#000102"/>
  <rect x="31" y="17" width="1" height="1" fill="#f7d3b0"/>
  <rect x="32" y="17" width="1" height="1" fill="#c39273"/>
  <rect x="33" y="17" width="1" height="1" fill="#3a0f3e"/>
  <rect x="34" y="17" width="3" height="1" fill="#612f6b"/>
  <rect x="37" y="17" width="1" height="1" fill="#300e31"/>
  <rect x="38" y="17" width="1" height="1" fill="#fcd9b0"/>
  <rect x="39" y="17" width="1" height="1" fill="#f7dcbf"/>
  <rect x="40" y="17" width="1" height="1" fill="#fff9ff"/>
  <rect x="41" y="17" width="1" height="1" fill="#7a4388"/>
  <rect x="42" y="17" width="1" height="1" fill="#663969"/>
  <rect x="43" y="17" width="1" height="1" fill="#fbdbb3"/>
  <rect x="44" y="17" width="1" height="1" fill="#f0debe"/>
  <rect x="45" y="17" width="1" height="1" fill="#000d00" opacity="0.56"/>
  <rect x="23" y="18" width="1" height="1" fill="#000300"/>
  <rect x="24" y="18" width="1" height="1" fill="#5c3865"/>
  <rect x="25" y="18" width="2" height="1" fill="#633269"/>
  <rect x="27" y="18" width="1" height="1" fill="#360d45"/>
  <rect x="28" y="18" width="1" height="1" fill="#522b5f"/>
  <rect x="29" y="18" width="1" height="1" fill="#2d1240"/>
  <rect x="30" y="18" width="1" height="1" fill="#231430"/>
  <rect x="31" y="18" width="1" height="1" fill="#060000"/>
  <rect x="32" y="18" width="1" height="1" fill="#dfb398"/>
  <rect x="33" y="18" width="1" height="1" fill="#271234"/>
  <rect x="34" y="18" width="3" height="1" fill="#642e68"/>
  <rect x="37" y="18" width="1" height="1" fill="#2d0c31"/>
  <rect x="38" y="18" width="2" height="1" fill="#fcdbb0"/>
  <rect x="40" y="18" width="1" height="1" fill="#efd6b6"/>
  <rect x="41" y="18" width="2" height="1" fill="#ffdac8"/>
  <rect x="43" y="18" width="2" height="1" fill="#fbdcb9"/>
  <rect x="45" y="18" width="1" height="1" fill="#a19f86"/>
  <rect x="46" y="18" width="1" height="1" fill="#000c00" opacity="0.65"/>
  <rect x="22" y="19" width="1" height="1" fill="#000400"/>
  <rect x="23" y="19" width="1" height="1" fill="#573f57"/>
  <rect x="24" y="19" width="3" height="1" fill="#613369"/>
  <rect x="27" y="19" width="1" height="1" fill="#361049"/>
  <rect x="28" y="19" width="1" height="1" fill="#5b2f66"/>
  <rect x="29" y="19" width="2" height="1" fill="#2d1246"/>
  <rect x="31" y="19" width="1" height="1" fill="#281532"/>
  <rect x="32" y="19" width="1" height="1" fill="#070100"/>
  <rect x="33" y="19" width="1" height="1" fill="#290e37"/>
  <rect x="34" y="19" width="3" height="1" fill="#5d2d6a"/>
  <rect x="37" y="19" width="1" height="1" fill="#301036"/>
  <rect x="38" y="19" width="7" height="1" fill="#fddeb8"/>
  <rect x="45" y="19" width="1" height="1" fill="#aa988c"/>
  <rect x="46" y="19" width="1" height="1" fill="#000d00" opacity="0.62"/>
  <rect x="21" y="20" width="1" height="1" fill="#000800" opacity="0.98"/>
  <rect x="22" y="20" width="1" height="1" fill="#523754"/>
  <rect x="23" y="20" width="3" height="1" fill="#5e316c"/>
  <rect x="26" y="20" width="1" height="1" fill="#3d0e4a"/>
  <rect x="27" y="20" width="1" height="1" fill="#34144d"/>
  <rect x="28" y="20" width="1" height="1" fill="#5e316b"/>
  <rect x="29" y="20" width="2" height="1" fill="#351245"/>
  <rect x="31" y="20" width="1" height="1" fill="#2c1844"/>
  <rect x="32" y="20" width="1" height="1" fill="#090000"/>
  <rect x="33" y="20" width="1" height="1" fill="#230f3a"/>
  <rect x="34" y="20" width="2" height="1" fill="#5d2c61"/>
  <rect x="36" y="20" width="1" height="1" fill="#5c3168"/>
  <rect x="37" y="20" width="1" height="1" fill="#2f1038"/>
  <rect x="38" y="20" width="2" height="1" fill="#fadfba"/>
  <rect x="40" y="20" width="4" height="1" fill="#fddcb3"/>
  <rect x="44" y="20" width="1" height="1" fill="#ecd9c1"/>
  <rect x="45" y="20" width="1" height="1" fill="#021005" opacity="0.67"/>
  <rect x="21" y="21" width="1" height="1" fill="#000800"/>
  <rect x="22" y="21" width="1" height="1" fill="#57335f"/>
  <rect x="23" y="21" width="3" height="1" fill="#612f67"/>
  <rect x="26" y="21" width="1" height="1" fill="#310f44"/>
  <rect x="27" y="21" width="1" height="1" fill="#552c60"/>
  <rect x="28" y="21" width="2" height="1" fill="#371247"/>
  <rect x="30" y="21" width="1" height="1" fill="#301a40"/>
  <rect x="31" y="21" width="2" height="1" fill="#060008"/>
  <rect x="33" y="21" width="1" height="1" fill="#271136"/>
  <rect x="34" y="21" width="3" height="1" fill="#5e2b67"/>
  <rect x="37" y="21" width="1" height="1" fill="#310e30"/>
  <rect x="38" y="21" width="1" height="1" fill="#e6bb92"/>
  <rect x="39" y="21" width="4" height="1" fill="#fedbb0"/>
  <rect x="43" y="21" width="1" height="1" fill="#dac5b0"/>
  <rect x="44" y="21" width="1" height="1" fill="#000100"/>
  <rect x="20" y="22" width="1" height="1" fill="#000700"/>
  <rect x="21" y="22" width="1" height="1" fill="#543f55"/>
  <rect x="22" y="22" width="3" height="1" fill="#61326d"/>
  <rect x="25" y="22" width="1" height="1" fill="#310b3e"/>
  <rect x="26" y="22" width="1" height="1" fill="#2b113f"/>
  <rect x="27" y="22" width="2" height="1" fill="#351045"/>
  <rect x="29" y="22" width="1" height="1" fill="#2d173c"/>
  <rect x="30" y="22" width="1" height="1" fill="#06000e"/>
  <rect x="31" y="22" width="2" height="1" fill="#020100"/>
  <rect x="33" y="22" width="1" height="1" fill="#331543"/>
  <rect x="34" y="22" width="3" height="1" fill="#5f2d6b"/>
  <rect x="37" y="22" width="1" height="1" fill="#360a2d"/>
  <rect x="38" y="22" width="2" height="1" fill="#dfab8a"/>
  <rect x="40" y="22" width="2" height="1" fill="#fcdbae"/>
  <rect x="42" y="22" width="1" height="1" fill="#f9e1c3"/>
  <rect x="43" y="22" width="1" height="1" fill="#000200"/>
  <rect x="19" y="23" width="1" height="1" fill="#081307" opacity="0.62"/>
  <rect x="20" y="23" width="1" height="1" fill="#624263"/>
  <rect x="21" y="23" width="3" height="1" fill="#61316d"/>
  <rect x="24" y="23" width="1" height="1" fill="#360b42"/>
  <rect x="25" y="23" width="2" height="1" fill="#2d1244"/>
  <rect x="27" y="23" width="1" height="1" fill="#261336"/>
  <rect x="28" y="23" width="2" height="1" fill="#05000b"/>
  <rect x="30" y="23" width="1" height="1" fill="#161617"/>
  <rect x="31" y="23" width="1" height="1" fill="#232324"/>
  <rect x="32" y="23" width="1" height="1" fill="#05040a"/>
  <rect x="33" y="23" width="1" height="1" fill="#2e173b"/>
  <rect x="34" y="23" width="4" height="1" fill="#60306c"/>
  <rect x="38" y="23" width="6" height="1" fill="#010000"/>
  <rect x="19" y="24" width="1" height="1" fill="#061305" opacity="0.55"/>
  <rect x="20" y="24" width="4" height="1" fill="#643568"/>
  <rect x="24" y="24" width="3" height="1" fill="#321145"/>
  <rect x="27" y="24" width="1" height="1" fill="#02000c"/>
  <rect x="28" y="24" width="1" height="1" fill="#010202"/>
  <rect x="29" y="24" width="2" height="1" fill="#333333"/>
  <rect x="31" y="24" width="2" height="1" fill="#1f1b22"/>
  <rect x="33" y="24" width="1" height="1" fill="#06000f"/>
  <rect x="34" y="24" width="4" height="1" fill="#5e3267"/>
  <rect x="38" y="24" width="1" height="1" fill="#000100"/>
  <rect x="39" y="24" width="1" height="1" fill="#68796b" opacity="0.49"/>
  <rect x="40" y="24" width="1" height="1" fill="#060400"/>
  <rect x="41" y="24" width="2" height="1" fill="#321641"/>
  <rect x="43" y="24" width="1" height="1" fill="#000700"/>
  <rect x="18" y="25" width="1" height="1" fill="#000400"/>
  <rect x="19" y="25" width="1" height="1" fill="#382c3a"/>
  <rect x="20" y="25" width="1" height="1" fill="#5a315b"/>
  <rect x="21" y="25" width="1" height="1" fill="#3c1049"/>
  <rect x="22" y="25" width="1" height="1" fill="#62306b"/>
  <rect x="23" y="25" width="1" height="1" fill="#380c46"/>
  <rect x="24" y="25" width="2" height="1" fill="#301348"/>
  <rect x="26" y="25" width="1" height="1" fill="#0d0018"/>
  <rect x="27" y="25" width="2" height="1" fill="#201f23"/>
  <rect x="29" y="25" width="4" height="1" fill="#1b1b1d"/>
  <rect x="33" y="25" width="1" height="1" fill="#232126"/>
  <rect x="34" y="25" width="1" height="1" fill="#0b000f"/>
  <rect x="35" y="25" width="2" height="1" fill="#61306a"/>
  <rect x="37" y="25" width="1" height="1" fill="#593260"/>
  <rect x="38" y="25" width="1" height="1" fill="#000100"/>
  <rect x="39" y="25" width="1" height="1" fill="#627261" opacity="0.35"/>
  <rect x="40" y="25" width="1" height="1" fill="#040002"/>
  <rect x="41" y="25" width="1" height="1" fill="#321743"/>
  <rect x="42" y="25" width="1" height="1" fill="#2c1e3e"/>
  <rect x="43" y="25" width="1" height="1" fill="#000600"/>
  <rect x="18" y="26" width="1" height="1" fill="#000300"/>
  <rect x="19" y="26" width="1" height="1" fill="#482549"/>
  <rect x="20" y="26" width="1" height="1" fill="#380e41"/>
  <rect x="21" y="26" width="2" height="1" fill="#582d61"/>
  <rect x="23" y="26" width="2" height="1" fill="#351045"/>
  <rect x="25" y="26" width="1" height="1" fill="#34144d"/>
  <rect x="26" y="26" width="1" height="1" fill="#040009"/>
  <rect x="27" y="26" width="4" height="1" fill="#1a1c20"/>
  <rect x="31" y="26" width="4" height="1" fill="#010000"/>
  <rect x="35" y="26" width="1" height="1" fill="#55335d"/>
  <rect x="36" y="26" width="1" height="1" fill="#602c65"/>
  <rect x="37" y="26" width="1" height="1" fill="#5c3060"/>
  <rect x="38" y="26" width="1" height="1" fill="#000000"/>
  <rect x="39" y="26" width="1" height="1" fill="#cfd5d0"/>
  <rect x="40" y="26" width="1" height="1" fill="#080107"/>
  <rect x="41" y="26" width="1" height="1" fill="#371b4b"/>
  <rect x="42" y="26" width="1" height="1" fill="#33213a"/>
  <rect x="43" y="26" width="1" height="1" fill="#000600"/>
  <rect x="18" y="27" width="1" height="1" fill="#4d3e54"/>
  <rect x="19" y="27" width="1" height="1" fill="#5e2f63"/>
  <rect x="20" y="27" width="1" height="1" fill="#1d042d"/>
  <rect x="21" y="27" width="1" height="1" fill="#593262"/>
  <rect x="22" y="27" width="1" height="1" fill="#61346d"/>
  <rect x="23" y="27" width="3" height="1" fill="#2d0d3d"/>
  <rect x="26" y="27" width="1" height="1" fill="#03000c"/>
  <rect x="27" y="27" width="2" height="1" fill="#1d1e1f"/>
  <rect x="29" y="27" width="2" height="1" fill="#040406"/>
  <rect x="31" y="27" width="4" height="1" fill="#1a1919"/>
  <rect x="35" y="27" width="1" height="1" fill="#060004"/>
  <rect x="36" y="27" width="1" height="1" fill="#5a3560"/>
  <rect x="37" y="27" width="1" height="1" fill="#622d6b"/>
  <rect x="38" y="27" width="1" height="1" fill="#604565"/>
  <rect x="39" y="27" width="1" height="1" fill="#000204"/>
  <rect x="40" y="27" width="1" height="1" fill="#070008"/>
  <rect x="41" y="27" width="1" height="1" fill="#351c44"/>
  <rect x="42" y="27" width="1" height="1" fill="#000100"/>
  <rect x="43" y="27" width="1" height="1" fill="#52604d" opacity="0.20"/>
  <rect x="44" y="27" width="3" height="1" fill="#000100"/>
  <rect x="18" y="28" width="1" height="1" fill="#54355c"/>
  <rect x="19" y="28" width="1" height="1" fill="#64366d"/>
  <rect x="20" y="28" width="1" height="1" fill="#1d022b"/>
  <rect x="21" y="28" width="1" height="1" fill="#573361"/>
  <rect x="22" y="28" width="3" height="1" fill="#311045"/>
  <rect x="25" y="28" width="1" height="1" fill="#060008"/>
  <rect x="26" y="28" width="3" height="1" fill="#000000"/>
  <rect x="29" y="28" width="3" height="1" fill="#1d1d1d"/>
  <rect x="32" y="28" width="3" height="1" fill="#303032"/>
  <rect x="35" y="28" width="1" height="1" fill="#090d0c"/>
  <rect x="36" y="28" width="1" height="1" fill="#0b0010"/>
  <rect x="37" y="28" width="2" height="1" fill="#5d3865"/>
  <rect x="39" y="28" width="2" height="1" fill="#030000"/>
  <rect x="41" y="28" width="1" height="1" fill="#281e32"/>
  <rect x="42" y="28" width="2" height="1" fill="#010303"/>
  <rect x="44" y="28" width="1" height="1" fill="#e7b484"/>
  <rect x="45" y="28" width="1" height="1" fill="#bf996f"/>
  <rect x="46" y="28" width="1" height="1" fill="#d9cfad"/>
  <rect x="47" y="28" width="1" height="1" fill="#000300"/>
  <rect x="18" y="29" width="1" height="1" fill="#53325b"/>
  <rect x="19" y="29" width="1" height="1" fill="#5e3369"/>
  <rect x="20" y="29" width="1" height="1" fill="#1e0431"/>
  <rect x="21" y="29" width="1" height="1" fill="#5b3265"/>
  <rect x="22" y="29" width="2" height="1" fill="#351149"/>
  <rect x="24" y="29" width="1" height="1" fill="#2a143c"/>
  <rect x="25" y="29" width="1" height="1" fill="#030005"/>
  <rect x="26" y="29" width="1" height="1" fill="#171717"/>
  <rect x="27" y="29" width="2" height="1" fill="#000002"/>
  <rect x="29" y="29" width="3" height="1" fill="#1a1a1a"/>
  <rect x="32" y="29" width="4" height="1" fill="#313133"/>
  <rect x="36" y="29" width="1" height="1" fill="#0a0f0f"/>
  <rect x="37" y="29" width="1" height="1" fill="#05000a"/>
  <rect x="38" y="29" width="1" height="1" fill="#59395d"/>
  <rect x="39" y="29" width="4" height="1" fill="#020203"/>
  <rect x="43" y="29" width="1" height="1" fill="#0b0000"/>
  <rect x="44" y="29" width="1" height="1" fill="#dfb18f"/>
  <rect x="45" y="29" width="1" height="1" fill="#ebc59c"/>
  <rect x="46" y="29" width="1" height="1" fill="#fcd8b5"/>
  <rect x="47" y="29" width="1" height="1" fill="#f1e2c3"/>
  <rect x="48" y="29" width="1" height="1" fill="#1c2a1b" opacity="0.21"/>
  <rect x="18" y="30" width="1" height="1" fill="#503058"/>
  <rect x="19" y="30" width="1" height="1" fill="#3e1c49"/>
  <rect x="20" y="30" width="1" height="1" fill="#250d38"/>
  <rect x="21" y="30" width="1" height="1" fill="#5d2f66"/>
  <rect x="22" y="30" width="2" height="1" fill="#37114b"/>
  <rect x="24" y="30" width="1" height="1" fill="#0c001b"/>
  <rect x="25" y="30" width="2" height="1" fill="#1e1c1f"/>
  <rect x="27" y="30" width="2" height="1" fill="#000000"/>
  <rect x="29" y="30" width="1" height="1" fill="#191919"/>
  <rect x="30" y="30" width="1" height="1" fill="#010103"/>
  <rect x="31" y="30" width="1" height="1" fill="#1f1f21"/>
  <rect x="32" y="30" width="3" height="1" fill="#363638"/>
  <rect x="35" y="30" width="2" height="1" fill="#313130"/>
  <rect x="37" y="30" width="1" height="1" fill="#161418"/>
  <rect x="38" y="30" width="3" height="1" fill="#050105"/>
  <rect x="41" y="30" width="3" height="1" fill="#313130"/>
  <rect x="44" y="30" width="1" height="1" fill="#080000"/>
  <rect x="45" y="30" width="1" height="1" fill="#f3d3ab"/>
  <rect x="46" y="30" width="1" height="1" fill="#fbddb2"/>
  <rect x="47" y="30" width="1" height="1" fill="#f0dfc2"/>
  <rect x="48" y="30" width="1" height="1" fill="#1c2919" opacity="0.29"/>
  <rect x="18" y="31" width="1" height="1" fill="#4c3055"/>
  <rect x="19" y="31" width="1" height="1" fill="#2e1a37"/>
  <rect x="20" y="31" width="1" height="1" fill="#251736"/>
  <rect x="21" y="31" width="1" height="1" fill="#592e62"/>
  <rect x="22" y="31" width="2" height="1" fill="#331145"/>
  <rect x="24" y="31" width="1" height="1" fill="#0a0514"/>
  <rect x="25" y="31" width="2" height="1" fill="#1e1e1d"/>
  <rect x="27" y="31" width="1" height="1" fill="#000000"/>
  <rect x="28" y="31" width="2" height="1" fill="#191919"/>
  <rect x="30" y="31" width="1" height="1" fill="#1d1d1f"/>
  <rect x="31" y="31" width="1" height="1" fill="#060608"/>
  <rect x="32" y="31" width="1" height="1" fill="#1d1d1f"/>
  <rect x="33" y="31" width="4" height="1" fill="#343436"/>
  <rect x="37" y="31" width="1" height="1" fill="#262624"/>
  <rect x="38" y="31" width="1" height="1" fill="#020005"/>
  <rect x="39" y="31" width="3" height="1" fill="#343436"/>
  <rect x="42" y="31" width="1" height="1" fill="#31312f"/>
  <rect x="43" y="31" width="1" height="1" fill="#363137"/>
  <rect x="44" y="31" width="1" height="1" fill="#36332c"/>
  <rect x="45" y="31" width="1" height="1" fill="#2e200d"/>
  <rect x="46" y="31" width="1" height="1" fill="#fdd7b0"/>
  <rect x="47" y="31" width="1" height="1" fill="#f7dfc3"/>
  <rect x="48" y="31" width="1" height="1" fill="#1c2a1d" opacity="0.24"/>
  <rect x="18" y="32" width="1" height="1" fill="#463550"/>
  <rect x="19" y="32" width="1" height="1" fill="#311934"/>
  <rect x="20" y="32" width="1" height="1" fill="#3f264b"/>
  <rect x="21" y="32" width="1" height="1" fill="#3b1349"/>
  <rect x="22" y="32" width="2" height="1" fill="#301345"/>
  <rect x="24" y="32" width="1" height="1" fill="#08000c"/>
  <rect x="25" y="32" width="1" height="1" fill="#232322"/>
  <rect x="26" y="32" width="2" height="1" fill="#020106"/>
  <rect x="28" y="32" width="3" height="1" fill="#1f2022"/>
  <rect x="31" y="32" width="1" height="1" fill="#000002"/>
  <rect x="32" y="32" width="1" height="1" fill="#1a1a1c"/>
  <rect x="33" y="32" width="4" height="1" fill="#323234"/>
  <rect x="37" y="32" width="1" height="1" fill="#1d1d1d"/>
  <rect x="38" y="32" width="7" height="1" fill="#333333"/>
  <rect x="45" y="32" width="1" height="1" fill="#38230d"/>
  <rect x="46" y="32" width="1" height="1" fill="#deb187"/>
  <rect x="47" y="32" width="1" height="1" fill="#dfcbb1"/>
  <rect x="48" y="32" width="1" height="1" fill="#223124" opacity="0.24"/>
  <rect x="18" y="33" width="2" height="1" fill="#000500"/>
  <rect x="20" y="33" width="1" height="1" fill="#3c2b46"/>
  <rect x="21" y="33" width="1" height="1" fill="#301641"/>
  <rect x="22" y="33" width="1" height="1" fill="#1e0b23"/>
  <rect x="23" y="33" width="1" height="1" fill="#321940"/>
  <rect x="24" y="33" width="1" height="1" fill="#090016"/>
  <rect x="25" y="33" width="1" height="1" fill="#242225"/>
  <rect x="26" y="33" width="1" height="1" fill="#000102"/>
  <rect x="27" y="33" width="5" height="1" fill="#1b1b1a"/>
  <rect x="32" y="33" width="2" height="1" fill="#010103"/>
  <rect x="34" y="33" width="9" height="1" fill="#333335"/>
  <rect x="43" y="33" width="1" height="1" fill="#393631"/>
  <rect x="44" y="33" width="1" height="1" fill="#3c3c38"/>
  <rect x="45" y="33" width="3" height="1" fill="#000300"/>
  <rect x="19" y="34" width="1" height="1" fill="#132617" opacity="0.15"/>
  <rect x="20" y="34" width="1" height="1" fill="#000200"/>
  <rect x="21" y="34" width="1" height="1" fill="#2d1b39"/>
  <rect x="22" y="34" width="1" height="1" fill="#180e27"/>
  <rect x="23" y="34" width="1" height="1" fill="#351640"/>
  <rect x="24" y="34" width="1" height="1" fill="#291339"/>
  <rect x="25" y="34" width="2" height="1" fill="#040006"/>
  <rect x="27" y="34" width="5" height="1" fill="#1e1f1f"/>
  <rect x="32" y="34" width="1" height="1" fill="#18181a"/>
  <rect x="33" y="34" width="2" height="1" fill="#010103"/>
  <rect x="35" y="34" width="7" height="1" fill="#373737"/>
  <rect x="42" y="34" width="1" height="1" fill="#2f3433"/>
  <rect x="43" y="34" width="2" height="1" fill="#000100"/>
  <rect x="21" y="35" width="1" height="1" fill="#000900" opacity="0.89"/>
  <rect x="22" y="35" width="1" height="1" fill="#030001"/>
  <rect x="23" y="35" width="2" height="1" fill="#2d183b"/>
  <rect x="25" y="35" width="1" height="1" fill="#030007"/>
  <rect x="26" y="35" width="6" height="1" fill="#191b1b"/>
  <rect x="32" y="35" width="2" height="1" fill="#202022"/>
  <rect x="34" y="35" width="1" height="1" fill="#1b1b1d"/>
  <rect x="35" y="35" width="1" height="1" fill="#000000"/>
  <rect x="36" y="35" width="3" height="1" fill="#181818"/>
  <rect x="39" y="35" width="1" height="1" fill="#212222"/>
  <rect x="40" y="35" width="3" height="1" fill="#000000"/>
  <rect x="22" y="36" width="3" height="1" fill="#000300"/>
  <rect x="25" y="36" width="1" height="1" fill="#201e23"/>
  <rect x="26" y="36" width="4" height="1" fill="#1b1b1e"/>
  <rect x="30" y="36" width="2" height="1" fill="#323232"/>
  <rect x="32" y="36" width="1" height="1" fill="#363638"/>
  <rect x="33" y="36" width="3" height="1" fill="#1f1f21"/>
  <rect x="36" y="36" width="5" height="1" fill="#000101"/>
  <rect x="23" y="37" width="1" height="1" fill="#000100"/>
  <rect x="24" y="37" width="6" height="1" fill="#1d1a1b"/>
  <rect x="30" y="37" width="4" height="1" fill="#363636"/>
  <rect x="34" y="37" width="2" height="1" fill="#1c1c1c"/>
  <rect x="36" y="37" width="1" height="1" fill="#020303"/>
  <rect x="37" y="37" width="1" height="1" fill="#b6b6b5"/>
  <rect x="38" y="37" width="1" height="1" fill="#c3c3c3"/>
  <rect x="39" y="37" width="1" height="1" fill="#1c1c1d"/>
  <rect x="40" y="37" width="1" height="1" fill="#000100"/>
  <rect x="22" y="38" width="1" height="1" fill="#000100"/>
  <rect x="23" y="38" width="4" height="1" fill="#1b1d1f"/>
  <rect x="27" y="38" width="7" height="1" fill="#313233"/>
  <rect x="34" y="38" width="1" height="1" fill="#373737"/>
  <rect x="35" y="38" width="1" height="1" fill="#050808"/>
  <rect x="36" y="38" width="2" height="1" fill="#bbbcbc"/>
  <rect x="38" y="38" width="1" height="1" fill="#c6c6c4"/>
  <rect x="39" y="38" width="1" height="1" fill="#080308"/>
  <rect x="40" y="38" width="1" height="1" fill="#000100"/>
  <rect x="20" y="39" width="2" height="1" fill="#000200"/>
  <rect x="22" y="39" width="4" height="1" fill="#202121"/>
  <rect x="26" y="39" width="9" height="1" fill="#313131"/>
  <rect x="35" y="39" width="1" height="1" fill="#030302"/>
  <rect x="36" y="39" width="1" height="1" fill="#bcbcb9"/>
  <rect x="37" y="39" width="1" height="1" fill="#f0f0ec"/>
  <rect x="38" y="39" width="1" height="1" fill="#fcfcf6"/>
  <rect x="39" y="39" width="2" height="1" fill="#010005"/>
  <rect x="18" y="40" width="2" height="1" fill="#000200"/>
  <rect x="20" y="40" width="3" height="1" fill="#181c1c"/>
  <rect x="23" y="40" width="9" height="1" fill="#363739"/>
  <rect x="32" y="40" width="1" height="1" fill="#333333"/>
  <rect x="33" y="40" width="1" height="1" fill="#2e2e2e"/>
  <rect x="34" y="40" width="1" height="1" fill="#010101"/>
  <rect x="35" y="40" width="1" height="1" fill="#a5a5a5"/>
  <rect x="36" y="40" width="4" height="1" fill="#f1f1ee"/>
  <rect x="40" y="40" width="1" height="1" fill="#000100"/>
  <rect x="16" y="41" width="1" height="1" fill="#1f261b" opacity="0.74"/>
  <rect x="17" y="41" width="1" height="1" fill="#040202"/>
  <rect x="18" y="41" width="1" height="1" fill="#121818"/>
  <rect x="19" y="41" width="3" height="1" fill="#1b1822"/>
  <rect x="22" y="41" width="11" height="1" fill="#343436"/>
  <rect x="33" y="41" width="1" height="1" fill="#3a3a3a"/>
  <rect x="34" y="41" width="1" height="1" fill="#000000"/>
  <rect x="35" y="41" width="1" height="1" fill="#9f9f9e"/>
  <rect x="36" y="41" width="1" height="1" fill="#efefec"/>
  <rect x="37" y="41" width="1" height="1" fill="#f6f6f2"/>
  <rect x="38" y="41" width="2" height="1" fill="#f1f0ec"/>
  <rect x="40" y="41" width="1" height="1" fill="#beb9bc"/>
  <rect x="41" y="41" width="1" height="1" fill="#000100"/>
  <rect x="15" y="42" width="1" height="1" fill="#07120b" opacity="0.99"/>
  <rect x="16" y="42" width="1" height="1" fill="#000102"/>
  <rect x="17" y="42" width="1" height="1" fill="#130f16"/>
  <rect x="18" y="42" width="3" height="1" fill="#171717"/>
  <rect x="21" y="42" width="12" height="1" fill="#323232"/>
  <rect x="33" y="42" width="1" height="1" fill="#3b3b3b"/>
  <rect x="34" y="42" width="1" height="1" fill="#000000"/>
  <rect x="35" y="42" width="2" height="1" fill="#f3f3f2"/>
  <rect x="37" y="42" width="1" height="1" fill="#bbbbb7"/>
  <rect x="38" y="42" width="1" height="1" fill="#f1f0ea"/>
  <rect x="39" y="42" width="2" height="1" fill="#f3f3f3"/>
  <rect x="41" y="42" width="1" height="1" fill="#b6b7b3"/>
  <rect x="42" y="42" width="1" height="1" fill="#000100"/>
  <rect x="14" y="43" width="1" height="1" fill="#3b4936" opacity="0.07"/>
  <rect x="15" y="43" width="1" height="1" fill="#181922"/>
  <rect x="16" y="43" width="3" height="1" fill="#1c1c1c"/>
  <rect x="19" y="43" width="2" height="1" fill="#2e2e30"/>
  <rect x="21" y="43" width="12" height="1" fill="#333333"/>
  <rect x="33" y="43" width="1" height="1" fill="#000000"/>
  <rect x="34" y="43" width="1" height="1" fill="#b4b4b1"/>
  <rect x="35" y="43" width="2" height="1" fill="#f1f1ed"/>
  <rect x="37" y="43" width="1" height="1" fill="#b5b5b1"/>
  <rect x="38" y="43" width="2" height="1" fill="#f3f3ef"/>
  <rect x="40" y="43" width="2" height="1" fill="#efece9"/>
  <rect x="42" y="43" width="1" height="1" fill="#bbbbbb"/>
  <rect x="43" y="43" width="1" height="1" fill="#000700"/>
  <rect x="14" y="44" width="1" height="1" fill="#424f3f" opacity="0.19"/>
  <rect x="15" y="44" width="1" height="1" fill="#161716"/>
  <rect x="16" y="44" width="1" height="1" fill="#211c21"/>
  <rect x="17" y="44" width="1" height="1" fill="#2a2a2b"/>
  <rect x="18" y="44" width="15" height="1" fill="#363637"/>
  <rect x="33" y="44" width="1" height="1" fill="#10100f"/>
  <rect x="34" y="44" width="1" height="1" fill="#b1b1ad"/>
  <rect x="35" y="44" width="2" height="1" fill="#efeeea"/>
  <rect x="37" y="44" width="1" height="1" fill="#b5b5b3"/>
  <rect x="38" y="44" width="1" height="1" fill="#adadac"/>
  <rect x="39" y="44" width="4" height="1" fill="#f2f2ee"/>
  <rect x="43" y="44" width="1" height="1" fill="#000400"/>
  <rect x="15" y="45" width="1" height="1" fill="#131413"/>
  <rect x="16" y="45" width="1" height="1" fill="#2f2d2e"/>
  <rect x="17" y="45" width="14" height="1" fill="#353535"/>
  <rect x="31" y="45" width="1" height="1" fill="#3b3c3e"/>
  <rect x="32" y="45" width="1" height="1" fill="#000101"/>
  <rect x="33" y="45" width="1" height="1" fill="#bdbdbc"/>
  <rect x="34" y="45" width="3" height="1" fill="#f0efeb"/>
  <rect x="37" y="45" width="3" height="1" fill="#b3b3b2"/>
  <rect x="40" y="45" width="3" height="1" fill="#f5f5f3"/>
  <rect x="43" y="45" width="1" height="1" fill="#b3b6b6"/>
  <rect x="44" y="45" width="1" height="1" fill="#000200"/>
  <rect x="15" y="46" width="1" height="1" fill="#001200" opacity="0.19"/>
  <rect x="16" y="46" width="1" height="1" fill="#10150d"/>
  <rect x="17" y="46" width="1" height="1" fill="#292926"/>
  <rect x="18" y="46" width="14" height="1" fill="#333535"/>
  <rect x="32" y="46" width="1" height="1" fill="#3a3b3b"/>
  <rect x="33" y="46" width="1" height="1" fill="#bebebe"/>
  <rect x="34" y="46" width="2" height="1" fill="#f3f1ee"/>
  <rect x="36" y="46" width="1" height="1" fill="#edede9"/>
  <rect x="37" y="46" width="3" height="1" fill="#b2b3b3"/>
  <rect x="40" y="46" width="1" height="1" fill="#eaeae9"/>
  <rect x="41" y="46" width="2" height="1" fill="#f1f1ee"/>
  <rect x="43" y="46" width="1" height="1" fill="#c9c9c7"/>
  <rect x="44" y="46" width="1" height="1" fill="#000200"/>
  <rect x="16" y="47" width="1" height="1" fill="#001104" opacity="0.51"/>
  <rect x="17" y="47" width="1" height="1" fill="#16151b"/>
  <rect x="18" y="47" width="1" height="1" fill="#363a3c"/>
  <rect x="19" y="47" width="12" height="1" fill="#363534"/>
  <rect x="31" y="47" width="1" height="1" fill="#050505"/>
  <rect x="32" y="47" width="1" height="1" fill="#b4b4b3"/>
  <rect x="33" y="47" width="1" height="1" fill="#bfbfbe"/>
  <rect x="34" y="47" width="3" height="1" fill="#f4f3f0"/>
  <rect x="37" y="47" width="4" height="1" fill="#b5b6b6"/>
  <rect x="41" y="47" width="3" height="1" fill="#f2f2ee"/>
  <rect x="44" y="47" width="1" height="1" fill="#000300"/>
  <rect x="16" y="48" width="1" height="1" fill="#001100" opacity="0.25"/>
  <rect x="17" y="48" width="1" height="1" fill="#000400"/>
  <rect x="18" y="48" width="1" height="1" fill="#323334"/>
  <rect x="19" y="48" width="1" height="1" fill="#37372f"/>
  <rect x="20" y="48" width="11" height="1" fill="#313130"/>
  <rect x="31" y="48" width="1" height="1" fill="#010101"/>
  <rect x="32" y="48" width="1" height="1" fill="#b2b2b1"/>
  <rect x="33" y="48" width="3" height="1" fill="#f1f1ee"/>
  <rect x="36" y="48" width="4" height="1" fill="#b7b7b4"/>
  <rect x="40" y="48" width="1" height="1" fill="#b0b0ae"/>
  <rect x="41" y="48" width="2" height="1" fill="#f1f0ec"/>
  <rect x="43" y="48" width="1" height="1" fill="#f8f7f4"/>
  <rect x="44" y="48" width="1" height="1" fill="#000200"/>
  <rect x="18" y="49" width="1" height="1" fill="#242827"/>
  <rect x="19" y="49" width="10" height="1" fill="#333230"/>
  <rect x="29" y="49" width="1" height="1" fill="#2d2d2d"/>
  <rect x="30" y="49" width="1" height="1" fill="#4c4c4a"/>
  <rect x="31" y="49" width="1" height="1" fill="#b2b2b2"/>
  <rect x="32" y="49" width="1" height="1" fill="#c1c1be"/>
  <rect x="33" y="49" width="2" height="1" fill="#efeeea"/>
  <rect x="35" y="49" width="1" height="1" fill="#dfdfde"/>
  <rect x="36" y="49" width="2" height="1" fill="#b3b3b2"/>
  <rect x="38" y="49" width="2" height="1" fill="#b7b8b8"/>
  <rect x="40" y="49" width="1" height="1" fill="#c8c8c5"/>
  <rect x="41" y="49" width="2" height="1" fill="#f4f3ef"/>
  <rect x="43" y="49" width="1" height="1" fill="#ededeb"/>
  <rect x="44" y="49" width="1" height="1" fill="#000200"/>
  <rect x="18" y="50" width="1" height="1" fill="#000a00" opacity="0.86"/>
  <rect x="19" y="50" width="1" height="1" fill="#101412"/>
  <rect x="20" y="50" width="3" height="1" fill="#3a3434"/>
  <rect x="23" y="50" width="4" height="1" fill="#2f3535"/>
  <rect x="27" y="50" width="2" height="1" fill="#373739"/>
  <rect x="29" y="50" width="1" height="1" fill="#101010"/>
  <rect x="30" y="50" width="1" height="1" fill="#babab9"/>
  <rect x="31" y="50" width="1" height="1" fill="#afafaa"/>
  <rect x="32" y="50" width="1" height="1" fill="#edede8"/>
  <rect x="33" y="50" width="2" height="1" fill="#f2f2ef"/>
  <rect x="35" y="50" width="5" height="1" fill="#b5b5b2"/>
  <rect x="40" y="50" width="3" height="1" fill="#f3f4f4"/>
  <rect x="43" y="50" width="1" height="1" fill="#b1b2ac"/>
  <rect x="44" y="50" width="1" height="1" fill="#000800" opacity="0.98"/>
  <rect x="20" y="51" width="1" height="1" fill="#050904"/>
  <rect x="21" y="51" width="1" height="1" fill="#17181b"/>
  <rect x="22" y="51" width="5" height="1" fill="#323231"/>
  <rect x="27" y="51" width="1" height="1" fill="#28282a"/>
  <rect x="28" y="51" width="1" height="1" fill="#101010"/>
  <rect x="29" y="51" width="1" height="1" fill="#7e7e7e"/>
  <rect x="30" y="51" width="1" height="1" fill="#bbbbb9"/>
  <rect x="31" y="51" width="3" height="1" fill="#f2f2ef"/>
  <rect x="34" y="51" width="6" height="1" fill="#b3b3b2"/>
  <rect x="40" y="51" width="1" height="1" fill="#f1efea"/>
  <rect x="41" y="51" width="1" height="1" fill="#f9f6f6"/>
  <rect x="42" y="51" width="1" height="1" fill="#ebe7e2"/>
  <rect x="43" y="51" width="1" height="1" fill="#000700"/>
  <rect x="20" y="52" width="2" height="1" fill="#001000" opacity="0.34"/>
  <rect x="22" y="52" width="1" height="1" fill="#1a1e1d"/>
  <rect x="23" y="52" width="1" height="1" fill="#28292c"/>
  <rect x="24" y="52" width="3" height="1" fill="#313232"/>
  <rect x="27" y="52" width="1" height="1" fill="#1e1e20"/>
  <rect x="28" y="52" width="1" height="1" fill="#50504f"/>
  <rect x="29" y="52" width="1" height="1" fill="#c2c2c0"/>
  <rect x="30" y="52" width="1" height="1" fill="#c8c8c5"/>
  <rect x="31" y="52" width="2" height="1" fill="#f1f1ed"/>
  <rect x="33" y="52" width="1" height="1" fill="#dededd"/>
  <rect x="34" y="52" width="3" height="1" fill="#b7b7b7"/>
  <rect x="37" y="52" width="3" height="1" fill="#888887"/>
  <rect x="40" y="52" width="2" height="1" fill="#b1aeb1"/>
  <rect x="42" y="52" width="1" height="1" fill="#7c807e"/>
  <rect x="22" y="53" width="2" height="1" fill="#000100"/>
  <rect x="24" y="53" width="2" height="1" fill="#282725"/>
  <rect x="26" y="53" width="1" height="1" fill="#1e1e20"/>
  <rect x="27" y="53" width="1" height="1" fill="#171719"/>
  <rect x="28" y="53" width="1" height="1" fill="#a8a8a6"/>
  <rect x="29" y="53" width="1" height="1" fill="#c6c6c4"/>
  <rect x="30" y="53" width="1" height="1" fill="#d1d1cd"/>
  <rect x="31" y="53" width="2" height="1" fill="#ecece8"/>
  <rect x="33" y="53" width="1" height="1" fill="#b1b1b0"/>
  <rect x="34" y="53" width="1" height="1" fill="#b7b8b8"/>
  <rect x="35" y="53" width="1" height="1" fill="#afafae"/>
  <rect x="36" y="53" width="1" height="1" fill="#b3b3b3"/>
  <rect x="37" y="53" width="6" height="1" fill="#000000"/>
  <rect x="22" y="54" width="1" height="1" fill="#121508"/>
  <rect x="23" y="54" width="1" height="1" fill="#2a211c"/>
  <rect x="24" y="54" width="3" height="1" fill="#1b1817"/>
  <rect x="27" y="54" width="2" height="1" fill="#000101"/>
  <rect x="29" y="54" width="1" height="1" fill="#3d5043" opacity="0.15"/>
  <rect x="31" y="54" width="1" height="1" fill="#3f4e40" opacity="0.12"/>
  <rect x="32" y="54" width="1" height="1" fill="#3e4b36" opacity="0.11"/>
  <rect x="33" y="54" width="1" height="1" fill="#000101"/>
  <rect x="34" y="54" width="1" height="1" fill="#211d16"/>
  <rect x="35" y="54" width="1" height="1" fill="#231924"/>
  <rect x="36" y="54" width="2" height="1" fill="#201c19"/>
  <rect x="38" y="54" width="1" height="1" fill="#2d1b26"/>
  <rect x="39" y="54" width="1" height="1" fill="#030502"/>
  <rect x="40" y="54" width="1" height="1" fill="#334232" opacity="0.04"/>
  <rect x="21" y="55" width="1" height="1" fill="#010700"/>
  <rect x="22" y="55" width="2" height="1" fill="#3b2c27"/>
  <rect x="24" y="55" width="3" height="1" fill="#291e1c"/>
  <rect x="27" y="55" width="1" height="1" fill="#040003"/>
  <rect x="28" y="55" width="1" height="1" fill="#0a140a" opacity="0.67"/>
  <rect x="32" y="55" width="1" height="1" fill="#1f2d19" opacity="0.16"/>
  <rect x="33" y="55" width="1" height="1" fill="#030504"/>
  <rect x="34" y="55" width="4" height="1" fill="#312520"/>
  <rect x="38" y="55" width="2" height="1" fill="#030600"/>
  <rect x="20" y="56" width="1" height="1" fill="#191a14"/>
  <rect x="21" y="56" width="1" height="1" fill="#393228"/>
  <rect x="22" y="56" width="3" height="1" fill="#463330"/>
  <rect x="25" y="56" width="1" height="1" fill="#3d3728"/>
  <rect x="26" y="56" width="1" height="1" fill="#080702"/>
  <rect x="32" y="56" width="1" height="1" fill="#000000"/>
  <rect x="33" y="56" width="1" height="1" fill="#2d1e18"/>
  <rect x="34" y="56" width="3" height="1" fill="#292221"/>
  <rect x="37" y="56" width="1" height="1" fill="#000000"/>
  <rect x="19" y="57" width="1" height="1" fill="#172513" opacity="0.26"/>
  <rect x="20" y="57" width="1" height="1" fill="#423037"/>
  <rect x="21" y="57" width="3" height="1" fill="#403029"/>
  <rect x="24" y="57" width="1" height="1" fill="#443933"/>
  <rect x="25" y="57" width="1" height="1" fill="#180d09"/>
  <rect x="26" y="57" width="1" height="1" fill="#4d5a4c" opacity="0.24"/>
  <rect x="33" y="57" width="1" height="1" fill="#0e0e07"/>
  <rect x="34" y="57" width="3" height="1" fill="#30281d"/>
  <rect x="37" y="57" width="1" height="1" fill="#1f1f18"/>
  <rect x="38" y="57" width="1" height="1" fill="#000c00" opacity="0.70"/>
  <rect x="19" y="58" width="1" height="1" fill="#1d2a1e" opacity="0.37"/>
  <rect x="20" y="58" width="1" height="1" fill="#3d3b2c"/>
  <rect x="21" y="58" width="4" height="1" fill="#41312a"/>
  <rect x="25" y="58" width="1" height="1" fill="#000202"/>
  <rect x="34" y="58" width="1" height="1" fill="#171518"/>
  <rect x="35" y="58" width="3" height="1" fill="#2e2322"/>
  <rect x="38" y="58" width="1" height="1" fill="#000200"/>
  <rect x="20" y="59" width="1" height="1" fill="#000200"/>
  <rect x="21" y="59" width="1" height="1" fill="#3d312c"/>
  <rect x="22" y="59" width="2" height="1" fill="#47362c"/>
  <rect x="24" y="59" width="1" height="1" fill="#2d2019"/>
  <rect x="25" y="59" width="1" height="1" fill="#020007"/>
  <rect x="35" y="59" width="1" height="1" fill="#060106"/>
  <rect x="36" y="59" width="1" height="1" fill="#2d241c"/>
  <rect x="37" y="59" width="1" height="1" fill="#322024"/>
  <rect x="38" y="59" width="1" height="1" fill="#000200"/>
  <rect x="20" y="60" width="1" height="1" fill="#000300"/>
  <rect x="21" y="60" width="1" height="1" fill="#3e3431"/>
  <rect x="22" y="60" width="2" height="1" fill="#48362c"/>
  <rect x="24" y="60" width="1" height="1" fill="#402f26"/>
  <rect x="25" y="60" width="1" height="1" fill="#1a1a14"/>
  <rect x="26" y="60" width="1" height="1" fill="#000300"/>
  <rect x="35" y="60" width="1" height="1" fill="#45533d" opacity="0.10"/>
  <rect x="36" y="60" width="3" height="1" fill="#050002"/>
  <rect x="21" y="61" width="1" height="1" fill="#000600"/>
  <rect x="22" y="61" width="1" height="1" fill="#403732"/>
  <rect x="23" y="61" width="3" height="1" fill="#49342a"/>
  <rect x="26" y="61" width="1" height="1" fill="#040300"/>
  <rect x="21" y="62" width="2" height="1" fill="#000700"/>
  <rect x="23" y="62" width="4" height="1" fill="#060000"/>
</svg>