<svg xmlns="http://www.w3.org/2000/svg"
     width="64" height="64" viewBox="0 0 64 64"
     shape-rendering="crispEdges" image-rendering="pixelated">
  <rect x="39" y="14" width="1" height="1" fill="#000200"/>
  <rect x="40" y="14" width="2" height="1" fill="#9993ae"/>
  <rect x="42" y="14" width="1" height="1" fill="#000404"/>
  <rect x="18" y="15" width="1" height="1" fill="#0a0b0d"/>
  <rect x="19" y="15" width="1" height="1" fill="#020808"/>
  <rect x="20" y="15" width="1" height="1" fill="#090a0d"/>
  <rect x="21" y="15" width="2" height="1" fill="#000505"/>
  <rect x="23" y="15" width="1" height="1" fill="#657164" opacity="0.46"/>
  <rect x="35" y="15" width="1" height="1" fill="#090f09"/>
  <rect x="36" y="15" width="1" height="1" fill="#7e7f83"/>
  <rect x="37" y="15" width="2" height="1" fill="#e9e8ed"/>
  <rect x="39" y="15" width="1" height="1" fill="#9491a1"/>
  <rect x="40" y="15" width="1" height="1" fill="#9995ac"/>
  <rect x="41" y="15" width="1" height="1" fill="#a3a0b3"/>
  <rect x="42" y="15" width="1" height="1" fill="#090810"/>
  <rect x="43" y="15" width="1" height="1" fill="#050504"/>
  <rect x="44" y="15" width="1" height="1" fill="#0a0a0a"/>
  <rect x="45" y="15" width="2" height="1" fill="#010505"/>
  <rect x="17" y="16" width="4" height="1" fill="#000b00" opacity="0.74"/>
  <rect x="21" y="16" width="1" height="1" fill="#2e342e" opacity="0.68"/>
  <rect x="22" y="16" width="1" height="1" fill="#bfb6cc"/>
  <rect x="23" y="16" width="2" height="1" fill="#e3e0f5"/>
  <rect x="25" y="16" width="1" height="1" fill="#484a4c"/>
  <rect x="26" y="16" width="1" height="1" fill="#2f3533"/>
  <rect x="27" y="16" width="1" height="1" fill="#49584a" opacity="0.13"/>
  <rect x="28" y="16" width="1" height="1" fill="#42503f" opacity="0.07"/>
  <rect x="29" y="16" width="2" height="1" fill="#475544" opacity="0.09"/>
  <rect x="31" y="16" width="1" height="1" fill="#404e3a" opacity="0.07"/>
  <rect x="32" y="16" width="1" height="1" fill="#1b211f"/>
  <rect x="33" y="16" width="1" height="1" fill="#222626"/>
  <rect x="34" y="16" width="1" height="1" fill="#ede5f5"/>
  <rect x="35" y="16" width="1" height="1" fill="#e9ebf1"/>
  <rect x="36" y="16" width="1" height="1" fill="#d2d0dd"/>
  <rect x="37" y="16" width="2" height="1" fill="#b1abc3"/>
  <rect x="39" y="16" width="1" height="1" fill="#bdb9d1"/>
  <rect x="40" y="16" width="1" height="1" fill="#757286"/>
  <rect x="41" y="16" width="1" height="1" fill="#aaa4ca"/>
  <rect x="42" y="16" width="2" height="1" fill="#ccc7db"/>
  <rect x="44" y="16" width="3" height="1" fill="#eeeaf7"/>
  <rect x="47" y="16" width="1" height="1" fill="#e8e6f1"/>
  <rect x="48" y="16" width="1" height="1" fill="#494f4f"/>
  <rect x="49" y="16" width="1" height="1" fill="#4b5948" opacity="0.13"/>
  <rect x="18" y="17" width="1" height="1" fill="#000d02" opacity="0.73"/>
  <rect x="19" y="17" width="1" height="1" fill="#d3d4d5"/>
  <rect x="20" y="17" width="3" height="1" fill="#dbdadf"/>
  <rect x="23" y="17" width="1" height="1" fill="#bebbcc"/>
  <rect x="24" y="17" width="1" height="1" fill="#a5a1b9"/>
  <rect x="25" y="17" width="1" height="1" fill="#b5b2c6"/>
  <rect x="26" y="17" width="2" height="1" fill="#e6e3f3"/>
  <rect x="28" y="17" width="1" height="1" fill="#dfdcee"/>
  <rect x="29" y="17" width="1" height="1" fill="#d8d6e4"/>
  <rect x="30" y="17" width="1" height="1" fill="#aaa6c0"/>
  <rect x="31" y="17" width="1" height="1" fill="#e2dff4"/>
  <rect x="32" y="17" width="2" height="1" fill="#e8e7ef"/>
  <rect x="34" y="17" width="1" height="1" fill="#c2bdd0"/>
  <rect x="35" y="17" width="1" height="1" fill="#e0dbf0"/>
  <rect x="36" y="17" width="2" height="1" fill="#f0edf5"/>
  <rect x="38" y="17" width="1" height="1" fill="#b9b4cb"/>
  <rect x="39" y="17" width="1" height="1" fill="#afa9c4"/>
  <rect x="40" y="17" width="1" height="1" fill="#7c798a"/>
  <rect x="41" y="17" width="1" height="1" fill="#cac7da"/>
  <rect x="42" y="17" width="1" height="1" fill="#e4e0ee"/>
  <rect x="43" y="17" width="4" height="1" fill="#ece9f3"/>
  <rect x="47" y="17" width="1" height="1" fill="#d0ccda"/>
  <rect x="48" y="17" width="1" height="1" fill="#e9e5f6"/>
  <rect x="49" y="17" width="1" height="1" fill="#e3e0e9"/>
  <rect x="50" y="17" width="1" height="1" fill="#0d190b" opacity="0.49"/>
  <rect x="16" y="18" width="1" height="1" fill="#000400"/>
  <rect x="17" y="18" width="1" height="1" fill="#aca4ae"/>
  <rect x="18" y="18" width="1" height="1" fill="#a6a7b8"/>
  <rect x="19" y="18" width="1" height="1" fill="#9a94a8"/>
  <rect x="20" y="18" width="1" height="1" fill="#9490ab"/>
  <rect x="21" y="18" width="1" height="1" fill="#9b97b1"/>
  <rect x="22" y="18" width="3" height="1" fill="#eae8f4"/>
  <rect x="25" y="18" width="1" height="1" fill="#e3e1ef"/>
  <rect x="26" y="18" width="1" height="1" fill="#e9e6f8"/>
  <rect x="27" y="18" width="1" height="1" fill="#efedfb"/>
  <rect x="28" y="18" width="3" height="1" fill="#eae7f9"/>
  <rect x="31" y="18" width="1" height="1" fill="#ecebf1"/>
  <rect x="32" y="18" width="1" height="1" fill="#bebaca"/>
  <rect x="33" y="18" width="1" height="1" fill="#c2bdd0"/>
  <rect x="34" y="18" width="2" height="1" fill="#e5e1ed"/>
  <rect x="36" y="18" width="1" height="1" fill="#9b94b4"/>
  <rect x="37" y="18" width="1" height="1" fill="#a39cbc"/>
  <rect x="38" y="18" width="1" height="1" fill="#a8a3c1"/>
  <rect x="39" y="18" width="1" height="1" fill="#02000b"/>
  <rect x="40" y="18" width="1" height="1" fill="#c9c7d2"/>
  <rect x="41" y="18" width="3" height="1" fill="#efedf8"/>
  <rect x="44" y="18" width="7" height="1" fill="#eae7f0"/>
  <rect x="51" y="18" width="1" height="1" fill="#000200"/>
  <rect x="15" y="19" width="1" height="1" fill="#000800"/>
  <rect x="16" y="19" width="1" height="1" fill="#060303"/>
  <rect x="21" y="19" width="1" height="1" fill="#020607"/>
  <rect x="22" y="19" width="1" height="1" fill="#a19bba"/>
  <rect x="23" y="19" width="1" height="1" fill="#7b779b"/>
  <rect x="24" y="19" width="1" height="1" fill="#bab5d3"/>
  <rect x="25" y="19" width="3" height="1" fill="#e8ebf2"/>
  <rect x="28" y="19" width="1" height="1" fill="#e6e2f0"/>
  <rect x="29" y="19" width="1" height="1" fill="#e0dcec"/>
  <rect x="30" y="19" width="1" height="1" fill="#dad7e7"/>
  <rect x="31" y="19" width="1" height="1" fill="#e7e5f2"/>
  <rect x="32" y="19" width="2" height="1" fill="#edebf6"/>
  <rect x="34" y="19" width="1" height="1" fill="#a19dbc"/>
  <rect x="35" y="19" width="1" height="1" fill="#9c9ab5"/>
  <rect x="36" y="19" width="1" height="1" fill="#9491aa"/>
  <rect x="37" y="19" width="1" height="1" fill="#000000"/>
  <rect x="38" y="19" width="1" height="1" fill="#a09bad"/>
  <rect x="39" y="19" width="1" height="1" fill="#9691b2"/>
  <rect x="40" y="19" width="1" height="1" fill="#c9c4da"/>
  <rect x="41" y="19" width="1" height="1" fill="#ebe7f3"/>
  <rect x="42" y="19" width="1" height="1" fill="#8b869a"/>
  <rect x="43" y="19" width="1" height="1" fill="#efecf5"/>
  <rect x="44" y="19" width="1" height="1" fill="#fefcff"/>
  <rect x="45" y="19" width="1" height="1" fill="#f8f5ff"/>
  <rect x="46" y="19" width="1" height="1" fill="#9791aa"/>
  <rect x="47" y="19" width="1" height="1" fill="#fcfbff"/>
  <rect x="48" y="19" width="2" height="1" fill="#ece9f3"/>
  <rect x="50" y="19" width="1" height="1" fill="#cecede"/>
  <rect x="51" y="19" width="1" height="1" fill="#f0f1f4"/>
  <rect x="23" y="20" width="1" height="1" fill="#010206"/>
  <rect x="24" y="20" width="2" height="1" fill="#a49eb9"/>
  <rect x="26" y="20" width="1" height="1" fill="#9d98b4"/>
  <rect x="27" y="20" width="1" height="1" fill="#e1dfec"/>
  <rect x="28" y="20" width="2" height="1" fill="#eae8f5"/>
  <rect x="30" y="20" width="1" height="1" fill="#e5e2f3"/>
  <rect x="31" y="20" width="2" height="1" fill="#9d98b9"/>
  <rect x="33" y="20" width="1" height="1" fill="#a29dbd"/>
  <rect x="34" y="20" width="1" height="1" fill="#a6a6bf"/>
  <rect x="35" y="20" width="1" height="1" fill="#050706"/>
  <rect x="38" y="20" width="1" height="1" fill="#9a94ad"/>
  <rect x="39" y="20" width="1" height="1" fill="#8781a4"/>
  <rect x="40" y="20" width="1" height="1" fill="#dcd8e8"/>
  <rect x="41" y="20" width="2" height="1" fill="#e7e2f8"/>
  <rect x="43" y="20" width="2" height="1" fill="#edeaf3"/>
  <rect x="45" y="20" width="1" height="1" fill="#bfb9d5"/>
  <rect x="46" y="20" width="2" height="1" fill="#d4d1dc"/>
  <rect x="48" y="20" width="1" height="1" fill="#f6f8fd"/>
  <rect x="49" y="20" width="1" height="1" fill="#847286"/>
  <rect x="50" y="20" width="1" height="1" fill="#8a6f80"/>
  <rect x="51" y="20" width="1" height="1" fill="#e7eaf2"/>
  <rect x="20" y="21" width="2" height="1" fill="#050000"/>
  <rect x="24" y="21" width="1" height="1" fill="#000800"/>
  <rect x="25" y="21" width="2" height="1" fill="#928fa3"/>
  <rect x="27" y="21" width="4" height="1" fill="#a19bb6"/>
  <rect x="31" y="21" width="1" height="1" fill="#9b95b4"/>
  <rect x="32" y="21" width="1" height="1" fill="#8b8d9b"/>
  <rect x="33" y="21" width="1" height="1" fill="#000400"/>
  <rect x="37" y="21" width="1" height="1" fill="#5e6e58" opacity="0.20"/>
  <rect x="38" y="21" width="1" height="1" fill="#9b9aa8"/>
  <rect x="39" y="21" width="1" height="1" fill="#8c889e"/>
  <rect x="40" y="21" width="1" height="1" fill="#cfcbd9"/>
  <rect x="41" y="21" width="1" height="1" fill="#a09ebd"/>
  <rect x="42" y="21" width="1" height="1" fill="#ece7fe"/>
  <rect x="43" y="21" width="2" height="1" fill="#e9e6ee"/>
  <rect x="45" y="21" width="1" height="1" fill="#817f9c"/>
  <rect x="46" y="21" width="1" height="1" fill="#c6c2d3"/>
  <rect x="47" y="21" width="1" height="1" fill="#f0effa"/>
  <rect x="48" y="21" width="1" height="1" fill="#9289a5"/>
  <rect x="49" y="21" width="1" height="1" fill="#f4cdb5"/>
  <rect x="50" y="21" width="1" height="1" fill="#fbd6ca"/>
  <rect x="51" y="21" width="1" height="1" fill="#f4edff"/>
  <rect x="14" y="22" width="2" height="1" fill="#6f7e2b" opacity="0.05"/>
  <rect x="16" y="22" width="1" height="1" fill="#93a278" opacity="0.88"/>
  <rect x="17" y="22" width="1" height="1" fill="#94a38f"/>
  <rect x="18" y="22" width="1" height="1" fill="#9ca796"/>
  <rect x="19" y="22" width="1" height="1" fill="#c5a154"/>
  <rect x="20" y="22" width="1" height="1" fill="#c69f65"/>
  <rect x="21" y="22" width="1" height="1" fill="#fefdf0"/>
  <rect x="22" y="22" width="1" height="1" fill="#a0a0aa"/>
  <rect x="23" y="22" width="1" height="1" fill="#4e5c51" opacity="0.32"/>
  <rect x="28" y="22" width="1" height="1" fill="#21301f" opacity="0.05"/>
  <rect x="30" y="22" width="2" height="1" fill="#243321" opacity="0.04"/>
  <rect x="36" y="22" width="1" height="1" fill="#464d40" opacity="0.54"/>
  <rect x="37" y="22" width="2" height="1" fill="#efcdb0"/>
  <rect x="39" y="22" width="1" height="1" fill="#f9d0ba"/>
  <rect x="40" y="22" width="1" height="1" fill="#c8b09b"/>
  <rect x="41" y="22" width="1" height="1" fill="#76645d"/>
  <rect x="42" y="22" width="1" height="1" fill="#ece9fb"/>
  <rect x="43" y="22" width="2" height="1" fill="#e9e8ee"/>
  <rect x="45" y="22" width="1" height="1" fill="#857d9d"/>
  <rect x="46" y="22" width="1" height="1" fill="#aa9ab3"/>
  <rect x="47" y="22" width="1" height="1" fill="#cca4a0"/>
  <rect x="48" y="22" width="1" height="1" fill="#cebbcf"/>
  <rect x="49" y="22" width="1" height="1" fill="#f2dedf"/>
  <rect x="50" y="22" width="1" height="1" fill="#f8ddd3"/>
  <rect x="51" y="22" width="1" height="1" fill="#a49cba"/>
  <rect x="14" y="23" width="2" height="1" fill="#b3bfb4"/>
  <rect x="16" y="23" width="2" height="1" fill="#a5b2a0"/>
  <rect x="18" y="23" width="1" height="1" fill="#050000"/>
  <rect x="19" y="23" width="1" height="1" fill="#a07933"/>
  <rect x="20" y="23" width="4" height="1" fill="#fefefa"/>
  <rect x="24" y="23" width="1" height="1" fill="#dddcdb"/>
  <rect x="25" y="23" width="2" height="1" fill="#000900" opacity="0.93"/>
  <rect x="37" y="23" width="1" height="1" fill="#4f574e" opacity="0.50"/>
  <rect x="38" y="23" width="1" height="1" fill="#e0b496"/>
  <rect x="39" y="23" width="1" height="1" fill="#dea490"/>
  <rect x="40" y="23" width="1" height="1" fill="#c4816e"/>
  <rect x="41" y="23" width="1" height="1" fill="#eec6b5"/>
  <rect x="42" y="23" width="1" height="1" fill="#f9f5ff"/>
  <rect x="43" y="23" width="2" height="1" fill="#eeebf4"/>
  <rect x="45" y="23" width="1" height="1" fill="#a28d9d"/>
  <rect x="46" y="23" width="1" height="1" fill="#fad9be"/>
  <rect x="47" y="23" width="1" height="1" fill="#634337"/>
  <rect x="48" y="23" width="1" height="1" fill="#4c3932"/>
  <rect x="49" y="23" width="2" height="1" fill="#ffdcc3"/>
  <rect x="51" y="23" width="1" height="1" fill="#000100"/>
  <rect x="5" y="24" width="1" height="1" fill="#6b8570" opacity="0.45"/>
  <rect x="7" y="24" width="8" height="1" fill="#d1d7cf"/>
  <rect x="15" y="24" width="1" height="1" fill="#d4dbd5"/>
  <rect x="16" y="24" width="1" height="1" fill="#f8f9e4"/>
  <rect x="17" y="24" width="1" height="1" fill="#ffffdc"/>
  <rect x="18" y="24" width="1" height="1" fill="#aa904c"/>
  <rect x="19" y="24" width="1" height="1" fill="#8d7b44"/>
  <rect x="20" y="24" width="7" height="1" fill="#fffefe"/>
  <rect x="27" y="24" width="1" height="1" fill="#cdcbd5"/>
  <rect x="28" y="24" width="3" height="1" fill="#000200"/>
  <rect x="38" y="24" width="1" height="1" fill="#030000"/>
  <rect x="39" y="24" width="1" height="1" fill="#110200"/>
  <rect x="40" y="24" width="1" height="1" fill="#fed6bb"/>
  <rect x="41" y="24" width="1" height="1" fill="#e8b6a4"/>
  <rect x="42" y="24" width="1" height="1" fill="#d5cfe3"/>
  <rect x="43" y="24" width="2" height="1" fill="#e5e1f1"/>
  <rect x="45" y="24" width="1" height="1" fill="#988392"/>
  <rect x="46" y="24" width="1" height="1" fill="#ffdccd"/>
  <rect x="47" y="24" width="1" height="1" fill="#dcdeea"/>
  <rect x="48" y="24" width="1" height="1" fill="#27343e"/>
  <rect x="49" y="24" width="1" height="1" fill="#fedbc8"/>
  <rect x="50" y="24" width="1" height="1" fill="#0a0000"/>
  <rect x="16" y="25" width="1" height="1" fill="#000400"/>
  <rect x="17" y="25" width="1" height="1" fill="#6c5b3d"/>
  <rect x="18" y="25" width="1" height="1" fill="#83673f"/>
  <rect x="19" y="25" width="1" height="1" fill="#b7adb4"/>
  <rect x="20" y="25" width="1" height="1" fill="#b6b2ca"/>
  <rect x="21" y="25" width="1" height="1" fill="#eae8f2"/>
  <rect x="22" y="25" width="7" height="1" fill="#ffffff"/>
  <rect x="29" y="25" width="1" height="1" fill="#e5e1f0"/>
  <rect x="30" y="25" width="4" height="1" fill="#bbb9cd"/>
  <rect x="34" y="25" width="3" height="1" fill="#000100"/>
  <rect x="39" y="25" width="1" height="1" fill="#3a3d44"/>
  <rect x="40" y="25" width="1" height="1" fill="#66606b"/>
  <rect x="41" y="25" width="1" height="1" fill="#b39282"/>
  <rect x="42" y="25" width="1" height="1" fill="#736f7f"/>
  <rect x="43" y="25" width="1" height="1" fill="#d1cedf"/>
  <rect x="44" y="25" width="1" height="1" fill="#c6c3d7"/>
  <rect x="45" y="25" width="1" height="1" fill="#a18d9d"/>
  <rect x="46" y="25" width="1" height="1" fill="#ffdcc7"/>
  <rect x="47" y="25" width="1" height="1" fill="#fedfd1"/>
  <rect x="48" y="25" width="1" height="1" fill="#73827d" opacity="0.90"/>
  <rect x="49" y="25" width="1" height="1" fill="#fedcc3"/>
  <rect x="50" y="25" width="1" height="1" fill="#917476"/>
  <rect x="15" y="26" width="1" height="1" fill="#000200"/>
  <rect x="16" y="26" width="1" height="1" fill="#98762d"/>
  <rect x="17" y="26" width="1" height="1" fill="#fffeed"/>
  <rect x="18" y="26" width="4" height="1" fill="#fbffff"/>
  <rect x="22" y="26" width="1" height="1" fill="#c6c4ce"/>
  <rect x="23" y="26" width="2" height="1" fill="#bebbcb"/>
  <rect x="25" y="26" width="2" height="1" fill="#fdfcff"/>
  <rect x="27" y="26" width="2" height="1" fill="#b6b2c8"/>
  <rect x="29" y="26" width="2" height="1" fill="#bdb9d4"/>
  <rect x="31" y="26" width="1" height="1" fill="#000009"/>
  <rect x="32" y="26" width="4" height="1" fill="#0a0000"/>
  <rect x="36" y="26" width="1" height="1" fill="#b5afbb"/>
  <rect x="37" y="26" width="1" height="1" fill="#c1c3c5"/>
  <rect x="38" y="26" width="1" height="1" fill="#c9bfc1"/>
  <rect x="39" y="26" width="1" height="1" fill="#9c9093"/>
  <rect x="40" y="26" width="1" height="1" fill="#050a0d"/>
  <rect x="41" y="26" width="1" height="1" fill="#88292b"/>
  <rect x="42" y="26" width="1" height="1" fill="#c1968c"/>
  <rect x="43" y="26" width="1" height="1" fill="#928193"/>
  <rect x="44" y="26" width="1" height="1" fill="#847687"/>
  <rect x="45" y="26" width="1" height="1" fill="#9e909f"/>
  <rect x="46" y="26" width="5" height="1" fill="#fddcc5"/>
  <rect x="51" y="26" width="1" height="1" fill="#010100"/>
  <rect x="11" y="27" width="2" height="1" fill="#c9d1ca"/>
  <rect x="13" y="27" width="1" height="1" fill="#c5cdc2"/>
  <rect x="14" y="27" width="1" height="1" fill="#dce1d6"/>
  <rect x="15" y="27" width="1" height="1" fill="#fffde1"/>
  <rect x="16" y="27" width="13" height="1" fill="#fffff8"/>
  <rect x="29" y="27" width="2" height="1" fill="#fcfbff"/>
  <rect x="31" y="27" width="1" height="1" fill="#000006"/>
  <rect x="32" y="27" width="1" height="1" fill="#ca9f59"/>
  <rect x="33" y="27" width="1" height="1" fill="#fff2c9"/>
  <rect x="34" y="27" width="2" height="1" fill="#fafafa"/>
  <rect x="36" y="27" width="1" height="1" fill="#834228"/>
  <rect x="37" y="27" width="2" height="1" fill="#dbb664"/>
  <rect x="39" y="27" width="1" height="1" fill="#b1935c"/>
  <rect x="40" y="27" width="1" height="1" fill="#51483b"/>
  <rect x="41" y="27" width="1" height="1" fill="#c04d43"/>
  <rect x="42" y="27" width="1" height="1" fill="#0d0000"/>
  <rect x="43" y="27" width="1" height="1" fill="#d3a190"/>
  <rect x="44" y="27" width="1" height="1" fill="#ffd2b5"/>
  <rect x="45" y="27" width="1" height="1" fill="#947675"/>
  <rect x="46" y="27" width="4" height="1" fill="#ffd9c3"/>
  <rect x="50" y="27" width="1" height="1" fill="#f6e0c9"/>
  <rect x="14" y="28" width="1" height="1" fill="#373e2c" opacity="0.52"/>
  <rect x="15" y="28" width="1" height="1" fill="#896323"/>
  <rect x="16" y="28" width="2" height="1" fill="#eee6e9"/>
  <rect x="18" y="28" width="3" height="1" fill="#e8e6f0"/>
  <rect x="21" y="28" width="4" height="1" fill="#fffeff"/>
  <rect x="25" y="28" width="2" height="1" fill="#eeedf5"/>
  <rect x="27" y="28" width="1" height="1" fill="#cfccdc"/>
  <rect x="28" y="28" width="1" height="1" fill="#b1b1ba"/>
  <rect x="29" y="28" width="1" height="1" fill="#94949f"/>
  <rect x="30" y="28" width="2" height="1" fill="#252436"/>
  <rect x="32" y="28" width="1" height="1" fill="#171619"/>
  <rect x="33" y="28" width="1" height="1" fill="#866521"/>
  <rect x="34" y="28" width="1" height="1" fill="#eee3c4"/>
  <rect x="35" y="28" width="1" height="1" fill="#fffefa"/>
  <rect x="36" y="28" width="1" height="1" fill="#c19157"/>
  <rect x="37" y="28" width="1" height="1" fill="#af8d5e"/>
  <rect x="38" y="28" width="1" height="1" fill="#837969"/>
  <rect x="39" y="28" width="1" height="1" fill="#c0c1cd"/>
  <rect x="40" y="28" width="1" height="1" fill="#a9a5ac"/>
  <rect x="41" y="28" width="1" height="1" fill="#632226"/>
  <rect x="42" y="28" width="1" height="1" fill="#b59871"/>
  <rect x="43" y="28" width="1" height="1" fill="#332921"/>
  <rect x="44" y="28" width="1" height="1" fill="#9b766b"/>
  <rect x="45" y="28" width="1" height="1" fill="#f5bda4"/>
  <rect x="46" y="28" width="3" height="1" fill="#fdd8c2"/>
  <rect x="49" y="28" width="1" height="1" fill="#dba697"/>
  <rect x="50" y="28" width="1" height="1" fill="#1c2a12" opacity="0.20"/>
  <rect x="14" y="29" width="1" height="1" fill="#c39a54"/>
  <rect x="15" y="29" width="1" height="1" fill="#eee3ce"/>
  <rect x="16" y="29" width="1" height="1" fill="#e2e0ed"/>
  <rect x="17" y="29" width="5" height="1" fill="#fefeff"/>
  <rect x="22" y="29" width="1" height="1" fill="#818181"/>
  <rect x="23" y="29" width="1" height="1" fill="#6e6e70"/>
  <rect x="24" y="29" width="1" height="1" fill="#56565f"/>
  <rect x="25" y="29" width="1" height="1" fill="#5c5b75"/>
  <rect x="26" y="29" width="4" height="1" fill="#65627c"/>
  <rect x="30" y="29" width="1" height="1" fill="#3d3d50"/>
  <rect x="31" y="29" width="1" height="1" fill="#9b98a8"/>
  <rect x="32" y="29" width="1" height="1" fill="#bcbdd2"/>
  <rect x="33" y="29" width="1" height="1" fill="#3c2d16"/>
  <rect x="34" y="29" width="1" height="1" fill="#b6954e"/>
  <rect x="35" y="29" width="6" height="1" fill="#fffffb"/>
  <rect x="41" y="29" width="1" height="1" fill="#bfbeca"/>
  <rect x="42" y="29" width="1" height="1" fill="#736f73"/>
  <rect x="43" y="29" width="1" height="1" fill="#a15b2f"/>
  <rect x="44" y="29" width="1" height="1" fill="#8a7762"/>
  <rect x="45" y="29" width="1" height="1" fill="#000100"/>
  <rect x="46" y="29" width="1" height="1" fill="#474e40" opacity="0.52"/>
  <rect x="47" y="29" width="2" height="1" fill="#676361"/>
  <rect x="49" y="29" width="1" height="1" fill="#4c5944" opacity="0.15"/>
  <rect x="6" y="30" width="2" height="1" fill="#9ca345" opacity="0.71"/>
  <rect x="8" y="30" width="1" height="1" fill="#a1a74a" opacity="0.78"/>
  <rect x="9" y="30" width="1" height="1" fill="#a9ad47" opacity="0.87"/>
  <rect x="10" y="30" width="1" height="1" fill="#d1b363"/>
  <rect x="11" y="30" width="2" height="1" fill="#f9e097"/>
  <rect x="13" y="30" width="1" height="1" fill="#ffea9f"/>
  <rect x="14" y="30" width="1" height="1" fill="#c09c55"/>
  <rect x="15" y="30" width="4" height="1" fill="#fdfdfd"/>
  <rect x="19" y="30" width="2" height="1" fill="#010101"/>
  <rect x="21" y="30" width="2" height="1" fill="#6a6978"/>
  <rect x="23" y="30" width="4" height="1" fill="#686485"/>
  <rect x="27" y="30" width="1" height="1" fill="#61617b"/>
  <rect x="28" y="30" width="1" height="1" fill="#666483"/>
  <rect x="29" y="30" width="1" height="1" fill="#636177"/>
  <rect x="30" y="30" width="2" height="1" fill="#fefdfd"/>
  <rect x="32" y="30" width="1" height="1" fill="#f8f5fc"/>
  <rect x="33" y="30" width="1" height="1" fill="#abaac2"/>
  <rect x="34" y="30" width="1" height="1" fill="#d3ae69"/>
  <rect x="35" y="30" width="1" height="1" fill="#ada26d"/>
  <rect x="36" y="30" width="2" height="1" fill="#fdfdff"/>
  <rect x="38" y="30" width="1" height="1" fill="#c7c6cc"/>
  <rect x="39" y="30" width="2" height="1" fill="#fcfcfc"/>
  <rect x="41" y="30" width="1" height="1" fill="#f3ecdc"/>
  <rect x="42" y="30" width="1" height="1" fill="#9f8956"/>
  <rect x="43" y="30" width="2" height="1" fill="#0a0103"/>
  <rect x="13" y="31" width="1" height="1" fill="#070000"/>
  <rect x="14" y="31" width="1" height="1" fill="#b89759"/>
  <rect x="15" y="31" width="1" height="1" fill="#060601"/>
  <rect x="16" y="31" width="1" height="1" fill="#5c6b59" opacity="0.24"/>
  <rect x="19" y="31" width="1" height="1" fill="#5b6a52" opacity="0.19"/>
  <rect x="20" y="31" width="3" height="1" fill="#645f7f"/>
  <rect x="23" y="31" width="1" height="1" fill="#666984"/>
  <rect x="24" y="31" width="1" height="1" fill="#000108"/>
  <rect x="25" y="31" width="1" height="1" fill="#070710"/>
  <rect x="26" y="31" width="1" height="1" fill="#03020b"/>
  <rect x="27" y="31" width="1" height="1" fill="#a8a6b3"/>
  <rect x="28" y="31" width="1" height="1" fill="#030100"/>
  <rect x="29" y="31" width="1" height="1" fill="#9c513b"/>
  <rect x="30" y="31" width="1" height="1" fill="#c29d64"/>
  <rect x="31" y="31" width="1" height="1" fill="#6d522e"/>
  <rect x="32" y="31" width="1" height="1" fill="#fdfdfc"/>
  <rect x="33" y="31" width="1" height="1" fill="#b0acc6"/>
  <rect x="34" y="31" width="1" height="1" fill="#180b00"/>
  <rect x="35" y="31" width="1" height="1" fill="#735635"/>
  <rect x="36" y="31" width="1" height="1" fill="#bcb5cf"/>
  <rect x="37" y="31" width="1" height="1" fill="#bbbcc9"/>
  <rect x="38" y="31" width="2" height="1" fill="#fffdff"/>
  <rect x="40" y="31" width="1" height="1" fill="#ffffe2"/>
  <rect x="41" y="31" width="1" height="1" fill="#926f2f"/>
  <rect x="42" y="31" width="1" height="1" fill="#0c0000"/>
  <rect x="43" y="31" width="1" height="1" fill="#b29156"/>
  <rect x="44" y="31" width="1" height="1" fill="#000100"/>
  <rect x="53" y="31" width="1" height="1" fill="#cea973"/>
  <rect x="54" y="31" width="1" height="1" fill="#041102" opacity="0.57"/>
  <rect x="58" y="31" width="1" height="1" fill="#000100"/>
  <rect x="59" y="31" width="1" height="1" fill="#cfbe89"/>
  <rect x="21" y="32" width="1" height="1" fill="#62677b"/>
  <rect x="22" y="32" width="1" height="1" fill="#080308"/>
  <rect x="23" y="32" width="1" height="1" fill="#6c5027"/>
  <rect x="24" y="32" width="1" height="1" fill="#c3bac4"/>
  <rect x="25" y="32" width="2" height="1" fill="#bab8d2"/>
  <rect x="27" y="32" width="1" height="1" fill="#969197"/>
  <rect x="28" y="32" width="1" height="1" fill="#eccd83"/>
  <rect x="29" y="32" width="1" height="1" fill="#daa965"/>
  <rect x="30" y="32" width="1" height="1" fill="#c3b181"/>
  <rect x="31" y="32" width="1" height="1" fill="#cfbe83"/>
  <rect x="32" y="32" width="1" height="1" fill="#695320"/>
  <rect x="33" y="32" width="1" height="1" fill="#b1adbe"/>
  <rect x="34" y="32" width="1" height="1" fill="#130f16"/>
  <rect x="35" y="32" width="1" height="1" fill="#856631"/>
  <rect x="36" y="32" width="1" height="1" fill="#eae0dd"/>
  <rect x="37" y="32" width="2" height="1" fill="#fefdff"/>
  <rect x="39" y="32" width="1" height="1" fill="#f7dead"/>
  <rect x="40" y="32" width="1" height="1" fill="#c29d5c"/>
  <rect x="41" y="32" width="1" height="1" fill="#060604"/>
  <rect x="42" y="32" width="1" height="1" fill="#020000"/>
  <rect x="43" y="32" width="1" height="1" fill="#fad79f"/>
  <rect x="51" y="32" width="1" height="1" fill="#000b00" opacity="0.76"/>
  <rect x="52" y="32" width="1" height="1" fill="#d7ad7b"/>
  <rect x="53" y="32" width="1" height="1" fill="#060600"/>
  <rect x="59" y="32" width="1" height="1" fill="#765b3e"/>
  <rect x="60" y="32" width="1" height="1" fill="#a69b6c"/>
  <rect x="18" y="33" width="1" height="1" fill="#7c7c33" opacity="0.79"/>
  <rect x="19" y="33" width="1" height="1" fill="#887437" opacity="0.99"/>
  <rect x="20" y="33" width="1" height="1" fill="#7c7133" opacity="0.91"/>
  <rect x="21" y="33" width="1" height="1" fill="#876443"/>
  <rect x="22" y="33" width="1" height="1" fill="#8d7655"/>
  <rect x="23" y="33" width="1" height="1" fill="#9e7c4f"/>
  <rect x="24" y="33" width="2" height="1" fill="#bbb7ce"/>
  <rect x="26" y="33" width="1" height="1" fill="#bebed2"/>
  <rect x="27" y="33" width="1" height="1" fill="#cca96f"/>
  <rect x="28" y="33" width="1" height="1" fill="#c9aa7c"/>
  <rect x="29" y="33" width="1" height="1" fill="#d9b676"/>
  <rect x="30" y="33" width="1" height="1" fill="#ddb35c"/>
  <rect x="31" y="33" width="1" height="1" fill="#d7b364"/>
  <rect x="32" y="33" width="1" height="1" fill="#fff9ca"/>
  <rect x="33" y="33" width="1" height="1" fill="#050404"/>
  <rect x="34" y="33" width="1" height="1" fill="#1a1b2a"/>
  <rect x="35" y="33" width="1" height="1" fill="#060000"/>
  <rect x="36" y="33" width="1" height="1" fill="#a27e38"/>
  <rect x="37" y="33" width="1" height="1" fill="#f2dbb7"/>
  <rect x="38" y="33" width="1" height="1" fill="#b58b40"/>
  <rect x="39" y="33" width="1" height="1" fill="#bbad8a"/>
  <rect x="40" y="33" width="1" height="1" fill="#858488"/>
  <rect x="41" y="33" width="1" height="1" fill="#2e2f3c"/>
  <rect x="42" y="33" width="1" height="1" fill="#27261b"/>
  <rect x="43" y="33" width="1" height="1" fill="#040000"/>
  <rect x="51" y="33" width="1" height="1" fill="#d1ad77"/>
  <rect x="52" y="33" width="1" height="1" fill="#000100"/>
  <rect x="55" y="33" width="2" height="1" fill="#010100"/>
  <rect x="60" y="33" width="1" height="1" fill="#d5ab60"/>
  <rect x="61" y="33" width="1" height="1" fill="#1f2513" opacity="0.81"/>
  <rect x="22" y="34" width="1" height="1" fill="#987c5b"/>
  <rect x="23" y="34" width="1" height="1" fill="#a5804c"/>
  <rect x="24" y="34" width="2" height="1" fill="#bab6cd"/>
  <rect x="26" y="34" width="1" height="1" fill="#bdbcd1"/>
  <rect x="27" y="34" width="1" height="1" fill="#070000"/>
  <rect x="28" y="34" width="1" height="1" fill="#2f1b11"/>
  <rect x="29" y="34" width="1" height="1" fill="#67433b"/>
  <rect x="30" y="34" width="1" height="1" fill="#745246"/>
  <rect x="31" y="34" width="1" height="1" fill="#c5a46e"/>
  <rect x="32" y="34" width="1" height="1" fill="#6c5028"/>
  <rect x="33" y="34" width="1" height="1" fill="#bab5cc"/>
  <rect x="34" y="34" width="1" height="1" fill="#d1d2db"/>
  <rect x="35" y="34" width="1" height="1" fill="#1d1d2c"/>
  <rect x="36" y="34" width="1" height="1" fill="#020000"/>
  <rect x="37" y="34" width="1" height="1" fill="#b19b7b"/>
  <rect x="38" y="34" width="1" height="1" fill="#0b0a17"/>
  <rect x="39" y="34" width="1" height="1" fill="#b7b7b8"/>
  <rect x="40" y="34" width="1" height="1" fill="#393a4d"/>
  <rect x="41" y="34" width="1" height="1" fill="#d0d1d2"/>
  <rect x="42" y="34" width="1" height="1" fill="#84756f"/>
  <rect x="43" y="34" width="1" height="1" fill="#000600"/>
  <rect x="50" y="34" width="1" height="1" fill="#070701"/>
  <rect x="51" y="34" width="1" height="1" fill="#cfa957"/>
  <rect x="54" y="34" width="1" height="1" fill="#654b28"/>
  <rect x="55" y="34" width="1" height="1" fill="#a72b22"/>
  <rect x="56" y="34" width="1" height="1" fill="#ad3d41"/>
  <rect x="57" y="34" width="1" height="1" fill="#bd8a51"/>
  <rect x="58" y="34" width="1" height="1" fill="#3c4933" opacity="0.09"/>
  <rect x="60" y="34" width="1" height="1" fill="#3c2f14"/>
  <rect x="61" y="34" width="1" height="1" fill="#b8a06f"/>
  <rect x="10" y="35" width="1" height="1" fill="#040000"/>
  <rect x="11" y="35" width="1" height="1" fill="#c39b6c"/>
  <rect x="12" y="35" width="1" height="1" fill="#101507"/>
  <rect x="13" y="35" width="1" height="1" fill="#9c8c6c"/>
  <rect x="14" y="35" width="8" height="1" fill="#000400"/>
  <rect x="22" y="35" width="2" height="1" fill="#0d0200"/>
  <rect x="24" y="35" width="3" height="1" fill="#000009"/>
  <rect x="27" y="35" width="1" height="1" fill="#05060b"/>
  <rect x="28" y="35" width="1" height="1" fill="#f6dfcc"/>
  <rect x="29" y="35" width="1" height="1" fill="#fedcc7"/>
  <rect x="30" y="35" width="1" height="1" fill="#fcd7c0"/>
  <rect x="31" y="35" width="11" height="1" fill="#000001"/>
  <rect x="42" y="35" width="2" height="1" fill="#0c0000"/>
  <rect x="44" y="35" width="3" height="1" fill="#000200"/>
  <rect x="47" y="35" width="1" height="1" fill="#11130d"/>
  <rect x="48" y="35" width="1" height="1" fill="#806f4e"/>
  <rect x="49" y="35" width="1" height="1" fill="#a8946b"/>
  <rect x="50" y="35" width="2" height="1" fill="#8a692d"/>
  <rect x="52" y="35" width="1" height="1" fill="#051207" opacity="0.67"/>
  <rect x="53" y="35" width="1" height="1" fill="#070000"/>
  <rect x="54" y="35" width="1" height="1" fill="#96201a"/>
  <rect x="55" y="35" width="1" height="1" fill="#5f000e"/>
  <rect x="56" y="35" width="1" height="1" fill="#6a0612"/>
  <rect x="57" y="35" width="1" height="1" fill="#bb2921"/>
  <rect x="58" y="35" width="1" height="1" fill="#ba9b74"/>
  <rect x="59" y="35" width="1" height="1" fill="#000800"/>
  <rect x="60" y="35" width="1" height="1" fill="#372200"/>
  <rect x="61" y="35" width="1" height="1" fill="#dcad57"/>
  <rect x="62" y="35" width="1" height="1" fill="#bd9f5a"/>
  <rect x="63" y="35" width="1" height="1" fill="#000300"/>
  <rect x="10" y="36" width="1" height="1" fill="#040000"/>
  <rect x="11" y="36" width="1" height="1" fill="#846629"/>
  <rect x="12" y="36" width="1" height="1" fill="#362405"/>
  <rect x="13" y="36" width="1" height="1" fill="#7e5c39"/>
  <rect x="14" y="36" width="14" height="1" fill="#150000"/>
  <rect x="28" y="36" width="1" height="1" fill="#dfb9ac"/>
  <rect x="29" y="36" width="1" height="1" fill="#ffd8c2"/>
  <rect x="30" y="36" width="1" height="1" fill="#e7b99f"/>
  <rect x="31" y="36" width="10" height="1" fill="#150100"/>
  <rect x="41" y="36" width="1" height="1" fill="#c79a87"/>
  <rect x="42" y="36" width="1" height="1" fill="#be8e7a"/>
  <rect x="43" y="36" width="1" height="1" fill="#d69c84"/>
  <rect x="44" y="36" width="1" height="1" fill="#070001"/>
  <rect x="45" y="36" width="2" height="1" fill="#170000"/>
  <rect x="47" y="36" width="1" height="1" fill="#21140d"/>
  <rect x="48" y="36" width="1" height="1" fill="#826138"/>
  <rect x="49" y="36" width="1" height="1" fill="#6a451a"/>
  <rect x="50" y="36" width="1" height="1" fill="#785621"/>
  <rect x="51" y="36" width="1" height="1" fill="#8d6b36"/>
  <rect x="52" y="36" width="2" height="1" fill="#060000"/>
  <rect x="54" y="36" width="1" height="1" fill="#98121a"/>
  <rect x="55" y="36" width="2" height="1" fill="#650a13"/>
  <rect x="57" y="36" width="1" height="1" fill="#b12429"/>
  <rect x="58" y="36" width="1" height="1" fill="#be9b75"/>
  <rect x="59" y="36" width="1" height="1" fill="#050400"/>
  <rect x="60" y="36" width="1" height="1" fill="#6e4f21"/>
  <rect x="61" y="36" width="1" height="1" fill="#d9ab56"/>
  <rect x="62" y="36" width="1" height="1" fill="#6f512d"/>
  <rect x="63" y="36" width="1" height="1" fill="#64745f" opacity="0.31"/>
  <rect x="11" y="37" width="1" height="1" fill="#000800" opacity="0.99"/>
  <rect x="23" y="37" width="1" height="1" fill="#6f593a"/>
  <rect x="24" y="37" width="1" height="1" fill="#6b5429"/>
  <rect x="25" y="37" width="1" height="1" fill="#bebcc5"/>
  <rect x="26" y="37" width="2" height="1" fill="#bebad5"/>
  <rect x="28" y="37" width="1" height="1" fill="#c2bcc5"/>
  <rect x="29" y="37" width="2" height="1" fill="#0b0000"/>
  <rect x="31" y="37" width="1" height="1" fill="#b3b2ba"/>
  <rect x="32" y="37" width="1" height="1" fill="#bebcd2"/>
  <rect x="33" y="37" width="5" height="1" fill="#fbfbfb"/>
  <rect x="38" y="37" width="1" height="1" fill="#dddee1"/>
  <rect x="40" y="37" width="1" height="1" fill="#241f1a"/>
  <rect x="41" y="37" width="1" height="1" fill="#e8b59b"/>
  <rect x="42" y="37" width="1" height="1" fill="#c68f7c"/>
  <rect x="43" y="37" width="1" height="1" fill="#d8a590"/>
  <rect x="49" y="37" width="1" height="1" fill="#000300"/>
  <rect x="50" y="37" width="1" height="1" fill="#735a42"/>
  <rect x="51" y="37" width="1" height="1" fill="#5b1304"/>
  <rect x="54" y="37" width="1" height="1" fill="#a47550"/>
  <rect x="55" y="37" width="1" height="1" fill="#99161d"/>
  <rect x="56" y="37" width="1" height="1" fill="#9e1923"/>
  <rect x="57" y="37" width="1" height="1" fill="#b57153"/>
  <rect x="58" y="37" width="1" height="1" fill="#000000"/>
  <rect x="60" y="37" width="1" height="1" fill="#6d583a"/>
  <rect x="61" y="37" width="1" height="1" fill="#b89d67"/>
  <rect x="23" y="38" width="1" height="1" fill="#64682d" opacity="0.54"/>
  <rect x="24" y="38" width="1" height="1" fill="#9c7f54"/>
  <rect x="25" y="38" width="1" height="1" fill="#744f21"/>
  <rect x="26" y="38" width="1" height="1" fill="#c3b5b4"/>
  <rect x="27" y="38" width="3" height="1" fill="#fcf8ff"/>
  <rect x="30" y="38" width="4" height="1" fill="#b9bdd1"/>
  <rect x="34" y="38" width="2" height="1" fill="#fefefe"/>
  <rect x="36" y="38" width="1" height="1" fill="#ffffed"/>
  <rect x="37" y="38" width="1" height="1" fill="#dcbe6f"/>
  <rect x="38" y="38" width="1" height="1" fill="#ddc37b"/>
  <rect x="39" y="38" width="1" height="1" fill="#bdab7d"/>
  <rect x="41" y="38" width="3" height="1" fill="#001300" opacity="0.08"/>
  <rect x="50" y="38" width="1" height="1" fill="#070000"/>
  <rect x="51" y="38" width="1" height="1" fill="#a13139"/>
  <rect x="52" y="38" width="1" height="1" fill="#140000"/>
  <rect x="54" y="38" width="1" height="1" fill="#011000" opacity="0.42"/>
  <rect x="55" y="38" width="1" height="1" fill="#886c4d"/>
  <rect x="56" y="38" width="1" height="1" fill="#8f6d58"/>
  <rect x="57" y="38" width="1" height="1" fill="#000200"/>
  <rect x="59" y="38" width="1" height="1" fill="#000000"/>
  <rect x="60" y="38" width="1" height="1" fill="#d5aa5a"/>
  <rect x="61" y="38" width="1" height="1" fill="#63634e" opacity="0.92"/>
  <rect x="25" y="39" width="1" height="1" fill="#877c55"/>
  <rect x="26" y="39" width="1" height="1" fill="#74501e"/>
  <rect x="27" y="39" width="1" height="1" fill="#d8bc7d"/>
  <rect x="28" y="39" width="1" height="1" fill="#fffeff"/>
  <rect x="29" y="39" width="3" height="1" fill="#beb9d5"/>
  <rect x="32" y="39" width="2" height="1" fill="#bab8cd"/>
  <rect x="34" y="39" width="1" height="1" fill="#fff6da"/>
  <rect x="35" y="39" width="1" height="1" fill="#e6bd77"/>
  <rect x="36" y="39" width="2" height="1" fill="#a07b36"/>
  <rect x="38" y="39" width="1" height="1" fill="#d5c18a"/>
  <rect x="39" y="39" width="1" height="1" fill="#ceba85"/>
  <rect x="40" y="39" width="1" height="1" fill="#121f15" opacity="0.58"/>
  <rect x="49" y="39" width="1" height="1" fill="#0d0000"/>
  <rect x="50" y="39" width="1" height="1" fill="#52292c"/>
  <rect x="51" y="39" width="1" height="1" fill="#40221f"/>
  <rect x="52" y="39" width="1" height="1" fill="#a6272e"/>
  <rect x="53" y="39" width="1" height="1" fill="#441517"/>
  <rect x="58" y="39" width="1" height="1" fill="#000100"/>
  <rect x="59" y="39" width="1" height="1" fill="#d9b562"/>
  <rect x="60" y="39" width="1" height="1" fill="#bea477"/>
  <rect x="13" y="40" width="1" height="1" fill="#899981" opacity="0.86"/>
  <rect x="16" y="40" width="1" height="1" fill="#7f917f" opacity="0.75"/>
  <rect x="17" y="40" width="2" height="1" fill="#7a8d7b" opacity="0.67"/>
  <rect x="19" y="40" width="4" height="1" fill="#80917f" opacity="0.76"/>
  <rect x="23" y="40" width="1" height="1" fill="#798b75" opacity="0.61"/>
  <rect x="24" y="40" width="1" height="1" fill="#8b998a" opacity="0.96"/>
  <rect x="25" y="40" width="1" height="1" fill="#cecacd"/>
  <rect x="26" y="40" width="1" height="1" fill="#040103"/>
  <rect x="27" y="40" width="1" height="1" fill="#a79062"/>
  <rect x="28" y="40" width="1" height="1" fill="#9a7740"/>
  <rect x="29" y="40" width="2" height="1" fill="#926f3f"/>
  <rect x="31" y="40" width="2" height="1" fill="#9e7545"/>
  <rect x="33" y="40" width="1" height="1" fill="#966c3b"/>
  <rect x="34" y="40" width="2" height="1" fill="#a48862"/>
  <rect x="36" y="40" width="2" height="1" fill="#0e0c18"/>
  <rect x="38" y="40" width="1" height="1" fill="#1d2031"/>
  <rect x="39" y="40" width="1" height="1" fill="#343649"/>
  <rect x="40" y="40" width="1" height="1" fill="#141c17"/>
  <rect x="49" y="40" width="1" height="1" fill="#6f1c26"/>
  <rect x="50" y="40" width="1" height="1" fill="#0c1d06" opacity="0.10"/>
  <rect x="52" y="40" width="1" height="1" fill="#4b2228"/>
  <rect x="53" y="40" width="1" height="1" fill="#8a1623"/>
  <rect x="54" y="40" width="1" height="1" fill="#6e2e1d"/>
  <rect x="55" y="40" width="2" height="1" fill="#a48f62"/>
  <rect x="57" y="40" width="1" height="1" fill="#d0ab63"/>
  <rect x="58" y="40" width="1" height="1" fill="#d7ac53"/>
  <rect x="59" y="40" width="1" height="1" fill="#b6976b"/>
  <rect x="60" y="40" width="1" height="1" fill="#021401" opacity="0.14"/>
  <rect x="23" y="41" width="1" height="1" fill="#3a2b29"/>
  <rect x="24" y="41" width="1" height="1" fill="#191d26"/>
  <rect x="25" y="41" width="3" height="1" fill="#1e2036"/>
  <rect x="28" y="41" width="1" height="1" fill="#050506"/>
  <rect x="29" y="41" width="1" height="1" fill="#211819"/>
  <rect x="30" y="41" width="1" height="1" fill="#3c2b29"/>
  <rect x="31" y="41" width="1" height="1" fill="#231715"/>
  <rect x="32" y="41" width="1" height="1" fill="#42302d"/>
  <rect x="33" y="41" width="1" height="1" fill="#3a2b26"/>
  <rect x="34" y="41" width="1" height="1" fill="#4e342c"/>
  <rect x="35" y="41" width="1" height="1" fill="#110500"/>
  <rect x="36" y="41" width="2" height="1" fill="#191826"/>
  <rect x="38" y="41" width="2" height="1" fill="#37374f"/>
  <rect x="40" y="41" width="1" height="1" fill="#323448"/>
  <rect x="48" y="41" width="1" height="1" fill="#000600"/>
  <rect x="49" y="41" width="1" height="1" fill="#65151c"/>
  <rect x="53" y="41" width="1" height="1" fill="#495345" opacity="0.33"/>
  <rect x="54" y="41" width="1" height="1" fill="#433317"/>
  <rect x="55" y="41" width="1" height="1" fill="#9f7c49"/>
  <rect x="56" y="41" width="2" height="1" fill="#977941"/>
  <rect x="58" y="41" width="1" height="1" fill="#3b2b24"/>
  <rect x="18" y="42" width="1" height="1" fill="#36410e" opacity="0.20"/>
  <rect x="19" y="42" width="2" height="1" fill="#6d622c" opacity="0.92"/>
  <rect x="21" y="42" width="1" height="1" fill="#463614"/>
  <rect x="22" y="42" width="1" height="1" fill="#482c27"/>
  <rect x="23" y="42" width="1" height="1" fill="#624032"/>
  <rect x="24" y="42" width="1" height="1" fill="#010005"/>
  <rect x="25" y="42" width="3" height="1" fill="#1e2132"/>
  <rect x="28" y="42" width="1" height="1" fill="#2b1917"/>
  <rect x="29" y="42" width="2" height="1" fill="#7b4a31"/>
  <rect x="31" y="42" width="1" height="1" fill="#4e3128"/>
  <rect x="32" y="42" width="1" height="1" fill="#754a2f"/>
  <rect x="33" y="42" width="1" height="1" fill="#552f26"/>
  <rect x="34" y="42" width="1" height="1" fill="#7f5130"/>
  <rect x="35" y="42" width="1" height="1" fill="#080007"/>
  <rect x="36" y="42" width="4" height="1" fill="#36364e"/>
  <rect x="40" y="42" width="1" height="1" fill="#3c434b"/>
  <rect x="48" y="42" width="1" height="1" fill="#000900" opacity="0.93"/>
  <rect x="49" y="42" width="1" height="1" fill="#65141d"/>
  <rect x="20" y="43" width="1" height="1" fill="#000200"/>
  <rect x="21" y="43" width="1" height="1" fill="#493526"/>
  <rect x="22" y="43" width="1" height="1" fill="#3f241d"/>
  <rect x="23" y="43" width="1" height="1" fill="#5a382d"/>
  <rect x="24" y="43" width="1" height="1" fill="#3e2d2b"/>
  <rect x="25" y="43" width="2" height="1" fill="#202333"/>
  <rect x="27" y="43" width="2" height="1" fill="#000100"/>
  <rect x="29" y="43" width="1" height="1" fill="#7e4c3b"/>
  <rect x="30" y="43" width="1" height="1" fill="#6e432d"/>
  <rect x="31" y="43" width="1" height="1" fill="#563627"/>
  <rect x="32" y="43" width="1" height="1" fill="#714a30"/>
  <rect x="33" y="43" width="1" height="1" fill="#734e3e"/>
  <rect x="34" y="43" width="1" height="1" fill="#7c5536"/>
  <rect x="35" y="43" width="1" height="1" fill="#080004"/>
  <rect x="36" y="43" width="1" height="1" fill="#373e52"/>
  <rect x="37" y="43" width="2" height="1" fill="#323649"/>
  <rect x="39" y="43" width="1" height="1" fill="#262231"/>
  <rect x="49" y="43" width="1" height="1" fill="#632126"/>
  <rect x="50" y="43" width="1" height="1" fill="#000200"/>
  <rect x="18" y="44" width="1" height="1" fill="#000200"/>
  <rect x="19" y="44" width="1" height="1" fill="#4f372c"/>
  <rect x="20" y="44" width="1" height="1" fill="#40261d"/>
  <rect x="21" y="44" width="2" height="1" fill="#4e3224"/>
  <rect x="23" y="44" width="1" height="1" fill="#3c231e"/>
  <rect x="24" y="44" width="1" height="1" fill="#59372b"/>
  <rect x="25" y="44" width="1" height="1" fill="#574a3f"/>
  <rect x="27" y="44" width="1" height="1" fill="#000100"/>
  <rect x="28" y="44" width="1" height="1" fill="#482522"/>
  <rect x="29" y="44" width="1" height="1" fill="#754f29"/>
  <rect x="30" y="44" width="1" height="1" fill="#654831"/>
  <rect x="31" y="44" width="3" height="1" fill="#000400"/>
  <rect x="34" y="44" width="1" height="1" fill="#7a554a"/>
  <rect x="35" y="44" width="1" height="1" fill="#735b49"/>
  <rect x="36" y="44" width="1" height="1" fill="#000800"/>
  <rect x="48" y="44" width="1" height="1" fill="#000900" opacity="0.91"/>
  <rect x="49" y="44" width="1" height="1" fill="#be3c3e"/>
  <rect x="50" y="44" width="1" height="1" fill="#000400"/>
  <rect x="16" y="45" width="1" height="1" fill="#414913" opacity="0.33"/>
  <rect x="17" y="45" width="1" height="1" fill="#535924" opacity="0.45"/>
  <rect x="18" y="45" width="1" height="1" fill="#533535"/>
  <rect x="19" y="45" width="2" height="1" fill="#593828"/>
  <rect x="21" y="45" width="1" height="1" fill="#472a26"/>
  <rect x="22" y="45" width="1" height="1" fill="#493831"/>
  <rect x="23" y="45" width="2" height="1" fill="#000100"/>
  <rect x="27" y="45" width="1" height="1" fill="#000100"/>
  <rect x="28" y="45" width="1" height="1" fill="#7f5337"/>
  <rect x="29" y="45" width="1" height="1" fill="#805640"/>
  <rect x="30" y="45" width="1" height="1" fill="#011604" opacity="0.15"/>
  <rect x="49" y="45" width="1" height="1" fill="#76423f"/>
  <rect x="18" y="46" width="1" height="1" fill="#372528"/>
  <rect x="19" y="46" width="2" height="1" fill="#593829"/>
  <rect x="21" y="46" width="1" height="1" fill="#372d23"/>
  <rect x="27" y="46" width="1" height="1" fill="#000000"/>
  <rect x="28" y="46" width="1" height="1" fill="#7b5433"/>
  <rect x="29" y="46" width="1" height="1" fill="#585942" opacity="0.86"/>
  <rect x="18" y="47" width="1" height="1" fill="#000000"/>
  <rect x="19" y="47" width="1" height="1" fill="#57362c"/>
  <rect x="20" y="47" width="1" height="1" fill="#543b35"/>
  <rect x="18" y="48" width="1" height="1" fill="#090701"/>
  <rect x="19" y="48" width="1" height="1" fill="#794c37"/>
  <rect x="20" y="48" width="1" height="1" fill="#7a5d50"/>
  <rect x="18" y="49" width="1" height="1" fill="#000000"/>
  <rect x="19" y="49" width="1" height="1" fill="#56372a"/>
  <rect x="20" y="49" width="1" height="1" fill="#5e412b"/>
  <rect x="21" y="49" width="1" height="1" fill="#3e4c38" opacity="0.05"/>
</svg>